<?xml version="1.0" encoding="utf-8"?>
<!-- created with bpmn-js / http://bpmn.io -->
<!DOCTYPE svg PUBLIC "-//W3C//DTD SVG 1.1//EN" "http://www.w3.org/Graphics/SVG/1.1/DTD/svg11.dtd">
<svg xmlns="http://www.w3.org/2000/svg" xmlns:xlink="http://www.w3.org/1999/xlink" width="110" height="90" viewBox="495 213 110 90" version="1.1"><defs><marker id="sequenceflow-end-white-hsl_225_10_15_-60ve8urq85hwbscb8mnode9xw" viewBox="0 0 20 20" refX="11" refY="10" markerWidth="10" markerHeight="10" orient="auto"><path d="M 1 5 L 11 10 L 1 15 Z" style="stroke-linecap: round; stroke-linejoin: round; stroke: rgb(34, 36, 42); stroke-width: 1px; fill: rgb(34, 36, 42);"/></marker></defs><g class="djs-group"><g class="djs-element djs-shape" data-element-id="Activity_1kk82mq" transform="matrix(1, 0, 0, 1, 500, 218)" style="display: block;"><g class="djs-visual"><rect x="0" y="0" width="100" height="80" rx="10" ry="10" style="stroke-linecap: round; stroke-linejoin: round; stroke: rgb(34, 36, 42); stroke-width: 2px; fill: white; fill-opacity: 0.95;"/><text style="font-family: Arial, sans-serif; font-size: 20px; font-weight: bold; fill: rgb(34, 36, 42);" lineHeight="1.2" class="djs-label"><tspan x="8" y="46">bpmn-os</tspan></text><path d="m18.78 5.0714-0.03003 1.1429-0.61 0.18572c-1.34 0.38571-3.87 0.94286-5.41 3.3143-0.72 1.1-1.18 1.6857-1.55 1.9429l-0.52 0.37143h-4.06v3.1429h2.67c3.25 0 1.88-0.0714 3.33 2.1143 1.73 2.6143 4.17 3.1143 5.51 3.5l0.64001 0.18572 0.03003 1.1571 0.03003 1.1571 2.29-1.8857c1.26-1.0286 2.29-1.9143 2.3-1.9714 0-0.0429-1.02-0.92858-2.27-1.9572l-2.28-1.8714-0.03003 1.0714c-0.03003 1-0.04001 1.0714-0.25 1.0714-0.57 0-2.82-0.34287-4.12-2.2572l-1.31-1.9 1.31-1.9143c1.31-1.9143 3.53-2.2143 4.12-2.2143 0.21 0 0.22 0.07143 0.25 1.0714l0.03003 1.0714 2.28-1.8714c1.2499-1.0286 2.2699-1.9143 2.2699-1.9571-0.0105-0.05715-1.04-0.94286-2.3-1.9714l-2.29-1.8857z" style="stroke: black; stroke-width: 0.5px; fill: black;"/></g><rect style="fill: none; stroke-opacity: 0; stroke: white; stroke-width: 15px;" class="djs-hit djs-hit-all" x="0" y="0" width="100" height="80"/><rect x="-5" y="-5" rx="14" width="110" height="90" style="fill: none;" class="djs-outline"/></g></g></svg>
