<?xml version="1.0" encoding="UTF-8" standalone="no"?>
<!DOCTYPE svg PUBLIC "-//W3C//DTD SVG 1.1//EN"
 "http://www.w3.org/Graphics/SVG/1.1/DTD/svg11.dtd">
<!-- Generated by graphviz version 2.43.0 (0)
 -->
<!-- Title: BPMNOS::Execution::Message Pages: 1 -->
<svg width="278pt" height="329pt"
 viewBox="0.00 0.00 277.50 329.00" xmlns="http://www.w3.org/2000/svg" xmlns:xlink="http://www.w3.org/1999/xlink">
<g id="graph0" class="graph" transform="scale(1 1) rotate(0) translate(4 325)">
<title>BPMNOS::Execution::Message</title>
<!-- Node1 -->
<g id="Node000001" class="node">
<title>Node1</title>
<g id="a_Node000001"><a xlink:title=" ">
<polygon fill="#999999" stroke="transparent" points="195,-210 72,-210 72,0 195,0 195,-210"/>
<text text-anchor="start" x="82.5" y="-198" font-family="Helvetica,sans-Serif" font-size="10.00">BPMNOS::Execution::</text>
<text text-anchor="start" x="112" y="-187" font-family="Helvetica,sans-Serif" font-size="10.00">Message</text>
<text text-anchor="start" x="76.5" y="-172" font-family="Helvetica,sans-Serif" font-size="10.00">+</text>
<text text-anchor="start" x="89.5" y="-172" font-family="Helvetica,sans-Serif" font-size="10.00">state</text>
<text text-anchor="start" x="76.5" y="-157" font-family="Helvetica,sans-Serif" font-size="10.00">+</text>
<text text-anchor="start" x="89.5" y="-157" font-family="Helvetica,sans-Serif" font-size="10.00">origin</text>
<text text-anchor="start" x="76.5" y="-142" font-family="Helvetica,sans-Serif" font-size="10.00">+</text>
<text text-anchor="start" x="89.5" y="-142" font-family="Helvetica,sans-Serif" font-size="10.00">waitingToken</text>
<text text-anchor="start" x="76.5" y="-127" font-family="Helvetica,sans-Serif" font-size="10.00">+</text>
<text text-anchor="start" x="89.5" y="-127" font-family="Helvetica,sans-Serif" font-size="10.00">recipient</text>
<text text-anchor="start" x="76.5" y="-112" font-family="Helvetica,sans-Serif" font-size="10.00">+</text>
<text text-anchor="start" x="89.5" y="-112" font-family="Helvetica,sans-Serif" font-size="10.00">header</text>
<text text-anchor="start" x="76.5" y="-97" font-family="Helvetica,sans-Serif" font-size="10.00">+</text>
<text text-anchor="start" x="89.5" y="-97" font-family="Helvetica,sans-Serif" font-size="10.00">contentValueMap</text>
<text text-anchor="start" x="76.5" y="-82" font-family="Helvetica,sans-Serif" font-size="10.00">+</text>
<text text-anchor="start" x="89.5" y="-82" font-family="Helvetica,sans-Serif" font-size="10.00">getObservableType()</text>
<text text-anchor="start" x="76.5" y="-67" font-family="Helvetica,sans-Serif" font-size="10.00">+</text>
<text text-anchor="start" x="89.5" y="-67" font-family="Helvetica,sans-Serif" font-size="10.00">Message()</text>
<text text-anchor="start" x="76.5" y="-52" font-family="Helvetica,sans-Serif" font-size="10.00">+</text>
<text text-anchor="start" x="89.5" y="-52" font-family="Helvetica,sans-Serif" font-size="10.00">Message()</text>
<text text-anchor="start" x="76.5" y="-37" font-family="Helvetica,sans-Serif" font-size="10.00">+</text>
<text text-anchor="start" x="89.5" y="-37" font-family="Helvetica,sans-Serif" font-size="10.00">matches()</text>
<text text-anchor="start" x="76.5" y="-22" font-family="Helvetica,sans-Serif" font-size="10.00">+</text>
<text text-anchor="start" x="89.5" y="-22" font-family="Helvetica,sans-Serif" font-size="10.00">apply()</text>
<text text-anchor="start" x="76.5" y="-7" font-family="Helvetica,sans-Serif" font-size="10.00">+</text>
<text text-anchor="start" x="89.5" y="-7" font-family="Helvetica,sans-Serif" font-size="10.00">jsonify()</text>
<polygon fill="#666666" stroke="#666666" points="72.5,-182 72.5,-182 195.5,-182 195.5,-182 72.5,-182"/>
<polygon fill="#666666" stroke="#666666" points="72.5,-92 72.5,-92 87.5,-92 87.5,-92 72.5,-92"/>
<polygon fill="#666666" stroke="#666666" points="87.5,-92 87.5,-92 195.5,-92 195.5,-92 87.5,-92"/>
<polygon fill="none" stroke="#666666" points="72,0 72,-210 195,-210 195,0 72,0"/>
</a>
</g>
</g>
<!-- Node2 -->
<g id="Node000002" class="node">
<title>Node2</title>
<g id="a_Node000002"><a xlink:href="structBPMNOS_1_1Execution_1_1Observable.html" target="_top" xlink:title=" ">
<polygon fill="white" stroke="transparent" points="123,-321 0,-321 0,-246 123,-246 123,-321"/>
<text text-anchor="start" x="10.5" y="-308.5" font-family="Helvetica,sans-Serif" font-size="10.00">BPMNOS::Execution::</text>
<text text-anchor="start" x="34" y="-297.5" font-family="Helvetica,sans-Serif" font-size="10.00">Observable</text>
<text text-anchor="start" x="60" y="-282.5" font-family="Helvetica,sans-Serif" font-size="10.00"> </text>
<text text-anchor="start" x="4.5" y="-267.5" font-family="Helvetica,sans-Serif" font-size="10.00">+</text>
<text text-anchor="start" x="17.5" y="-267.5" font-family="Helvetica,sans-Serif" font-size="10.00">getObservableType()</text>
<text text-anchor="start" x="4.5" y="-252.5" font-family="Helvetica,sans-Serif" font-size="10.00">+</text>
<text text-anchor="start" x="17.5" y="-252.5" font-family="Helvetica,sans-Serif" font-size="10.00">~Observable()</text>
<polygon fill="#666666" stroke="#666666" points="0.5,-292.5 0.5,-292.5 123.5,-292.5 123.5,-292.5 0.5,-292.5"/>
<polygon fill="#666666" stroke="#666666" points="0.5,-277.5 0.5,-277.5 123.5,-277.5 123.5,-277.5 0.5,-277.5"/>
<polygon fill="none" stroke="#666666" points="0,-246 0,-321 123,-321 123,-246 0,-246"/>
</a>
</g>
</g>
<!-- Node2&#45;&gt;Node1 -->
<g id="edge1_Node000001_Node000002" class="edge">
<title>Node2&#45;&gt;Node1</title>
<g id="a_edge1_Node000001_Node000002"><a xlink:title=" ">
<path fill="none" stroke="#63b8ff" d="M80.24,-236.55C83.61,-228.29 87.25,-219.38 90.98,-210.23"/>
<polygon fill="none" stroke="#63b8ff" points="76.95,-235.35 76.42,-245.93 83.44,-237.99 76.95,-235.35"/>
</a>
</g>
</g>
<!-- Node3 -->
<g id="Node000003" class="node">
<title>Node3</title>
<g id="a_Node000003"><a xlink:title=" ">
<polygon fill="white" stroke="transparent" points="269.5,-313.5 141.5,-313.5 141.5,-253.5 269.5,-253.5 269.5,-313.5"/>
<text text-anchor="start" x="146.5" y="-301.5" font-family="Helvetica,sans-Serif" font-size="10.00">std::enable_shared</text>
<text text-anchor="start" x="146.5" y="-290.5" font-family="Helvetica,sans-Serif" font-size="10.00">_from_this&lt; Message &gt;</text>
<text text-anchor="start" x="203.5" y="-275.5" font-family="Helvetica,sans-Serif" font-size="10.00"> </text>
<text text-anchor="start" x="203.5" y="-260.5" font-family="Helvetica,sans-Serif" font-size="10.00"> </text>
<polygon fill="#666666" stroke="#666666" points="141.5,-285.5 141.5,-285.5 269.5,-285.5 269.5,-285.5 141.5,-285.5"/>
<polygon fill="#666666" stroke="#666666" points="141.5,-270.5 141.5,-270.5 269.5,-270.5 269.5,-270.5 141.5,-270.5"/>
<polygon fill="none" stroke="#666666" points="141.5,-253.5 141.5,-313.5 269.5,-313.5 269.5,-253.5 141.5,-253.5"/>
</a>
</g>
</g>
<!-- Node3&#45;&gt;Node1 -->
<g id="edge2_Node000001_Node000003" class="edge">
<title>Node3&#45;&gt;Node1</title>
<g id="a_edge2_Node000001_Node000003"><a xlink:title=" ">
<path fill="none" stroke="#63b8ff" d="M189.79,-244C185.63,-233.79 180.92,-222.25 176.05,-210.32"/>
<polygon fill="none" stroke="#63b8ff" points="186.59,-245.42 193.61,-253.35 193.07,-242.77 186.59,-245.42"/>
</a>
</g>
</g>
</g>
</svg>
