<?xml version="1.0" encoding="UTF-8" standalone="no"?>
<!DOCTYPE svg PUBLIC "-//W3C//DTD SVG 1.1//EN"
 "http://www.w3.org/Graphics/SVG/1.1/DTD/svg11.dtd">
<!-- Generated by graphviz version 14.1.2 (0)
 -->
<!-- Title: BPMNOS::Execution::EventListener Pages: 1 -->
<svg width="294pt" height="836pt"
 viewBox="0.00 0.00 294.00 836.00" xmlns="http://www.w3.org/2000/svg" xmlns:xlink="http://www.w3.org/1999/xlink">
<g id="graph0" class="graph" transform="scale(1 1) rotate(0) translate(4 832.25)">
<title>BPMNOS::Execution::EventListener</title>
<!-- Node1 -->
<g id="Node000001" class="node">
<title>Node1</title>
<g id="a_Node000001"><a xlink:title=" ">
<polygon fill="#999999" stroke="none" points="186.5,-828.25 76.5,-828.25 76.5,-744.5 186.5,-744.5 186.5,-828.25"/>
<text xml:space="preserve" text-anchor="start" x="80.5" y="-814.75" font-family="Helvetica,sans-Serif" font-size="10.00">BPMNOS::Execution::</text>
<text xml:space="preserve" text-anchor="start" x="98.12" y="-802" font-family="Helvetica,sans-Serif" font-size="10.00">EventListener</text>
<text xml:space="preserve" text-anchor="start" x="81.56" y="-785.25" font-family="Helvetica,sans-Serif" font-size="10.00">#</text>
<text xml:space="preserve" text-anchor="start" x="94.88" y="-785.25" font-family="Helvetica,sans-Serif" font-size="10.00">eventDispatchers</text>
<text xml:space="preserve" text-anchor="start" x="81.56" y="-768.5" font-family="Helvetica,sans-Serif" font-size="10.00">+</text>
<text xml:space="preserve" text-anchor="start" x="94.88" y="-768.5" font-family="Helvetica,sans-Serif" font-size="10.00">subscribe()</text>
<text xml:space="preserve" text-anchor="start" x="81.56" y="-751.75" font-family="Helvetica,sans-Serif" font-size="10.00">#</text>
<text xml:space="preserve" text-anchor="start" x="94.88" y="-751.75" font-family="Helvetica,sans-Serif" font-size="10.00">fetchEvent()</text>
<polygon fill="#666666" stroke="#666666" points="76.5,-796.75 76.5,-796.75 186.5,-796.75 186.5,-796.75 76.5,-796.75"/>
<polygon fill="#666666" stroke="#666666" points="76.5,-780 76.5,-780 92.88,-780 92.88,-780 76.5,-780"/>
<polygon fill="#666666" stroke="#666666" points="92.88,-780 92.88,-780 186.5,-780 186.5,-780 92.88,-780"/>
<polygon fill="none" stroke="#666666" points="76.5,-744.5 76.5,-828.25 186.5,-828.25 186.5,-744.5 76.5,-744.5"/>
</a>
</g>
</g>
<!-- Node2 -->
<g id="Node000002" class="node">
<title>Node2</title>
<g id="a_Node000002"><a xlink:href="structBPMNOS_1_1Execution_1_1Mediator.html" target="_top" xlink:title="Represents an abstract base class for a class that is an event listener and notifier.">
<polygon fill="white" stroke="none" points="186.5,-708.5 76.5,-708.5 76.5,-641.5 186.5,-641.5 186.5,-708.5"/>
<text xml:space="preserve" text-anchor="start" x="80.5" y="-695" font-family="Helvetica,sans-Serif" font-size="10.00">BPMNOS::Execution::</text>
<text xml:space="preserve" text-anchor="start" x="109.75" y="-682.25" font-family="Helvetica,sans-Serif" font-size="10.00">Mediator</text>
<text xml:space="preserve" text-anchor="start" x="130" y="-665.5" font-family="Helvetica,sans-Serif" font-size="10.00"> </text>
<text xml:space="preserve" text-anchor="start" x="130" y="-648.75" font-family="Helvetica,sans-Serif" font-size="10.00"> </text>
<polygon fill="#666666" stroke="#666666" points="76.5,-677 76.5,-677 186.5,-677 186.5,-677 76.5,-677"/>
<polygon fill="#666666" stroke="#666666" points="76.5,-660.25 76.5,-660.25 186.5,-660.25 186.5,-660.25 76.5,-660.25"/>
<polygon fill="none" stroke="#666666" points="76.5,-641.5 76.5,-708.5 186.5,-708.5 186.5,-641.5 76.5,-641.5"/>
</a>
</g>
</g>
<!-- Node1&#45;&gt;Node2 -->
<g id="edge1_Node000001_Node000002" class="edge">
<title>Node1&#45;&gt;Node2</title>
<g id="a_edge1_Node000001_Node000002"><a xlink:title=" ">
<path fill="none" stroke="#63b8ff" d="M131.5,-733.17C131.5,-724.66 131.5,-716.07 131.5,-708.22"/>
<polygon fill="none" stroke="#63b8ff" points="128,-733.13 131.5,-743.13 135,-733.13 128,-733.13"/>
</a>
</g>
</g>
<!-- Node3 -->
<g id="Node000003" class="node">
<title>Node3</title>
<g id="a_Node000003"><a xlink:href="classBPMNOS_1_1Execution_1_1Controller.html" target="_top" xlink:title="Base class for an execution controller which dispatches events to the engine and listens to notificat...">
<polygon fill="white" stroke="none" points="110.5,-454.75 0.5,-454.75 0.5,-320.75 110.5,-320.75 110.5,-454.75"/>
<text xml:space="preserve" text-anchor="start" x="4.5" y="-441.25" font-family="Helvetica,sans-Serif" font-size="10.00">BPMNOS::Execution::</text>
<text xml:space="preserve" text-anchor="start" x="31.5" y="-428.5" font-family="Helvetica,sans-Serif" font-size="10.00">Controller</text>
<text xml:space="preserve" text-anchor="start" x="54" y="-411.75" font-family="Helvetica,sans-Serif" font-size="10.00"> </text>
<text xml:space="preserve" text-anchor="start" x="11" y="-395" font-family="Helvetica,sans-Serif" font-size="10.00">+</text>
<text xml:space="preserve" text-anchor="start" x="29.75" y="-395" font-family="Helvetica,sans-Serif" font-size="10.00">Controller()</text>
<text xml:space="preserve" text-anchor="start" x="11" y="-378.25" font-family="Helvetica,sans-Serif" font-size="10.00">+</text>
<text xml:space="preserve" text-anchor="start" x="29.75" y="-378.25" font-family="Helvetica,sans-Serif" font-size="10.00">~Controller()</text>
<text xml:space="preserve" text-anchor="start" x="11" y="-361.5" font-family="Helvetica,sans-Serif" font-size="10.00">+</text>
<text xml:space="preserve" text-anchor="start" x="29.75" y="-361.5" font-family="Helvetica,sans-Serif" font-size="10.00">connect()</text>
<text xml:space="preserve" text-anchor="start" x="11" y="-344.75" font-family="Helvetica,sans-Serif" font-size="10.00">+</text>
<text xml:space="preserve" text-anchor="start" x="29.75" y="-344.75" font-family="Helvetica,sans-Serif" font-size="10.00">notice()</text>
<text xml:space="preserve" text-anchor="start" x="11" y="-328" font-family="Helvetica,sans-Serif" font-size="10.00">+</text>
<text xml:space="preserve" text-anchor="start" x="29.75" y="-328" font-family="Helvetica,sans-Serif" font-size="10.00">notice()</text>
<polygon fill="#666666" stroke="#666666" points="0.5,-423.25 0.5,-423.25 110.5,-423.25 110.5,-423.25 0.5,-423.25"/>
<polygon fill="#666666" stroke="#666666" points="0.5,-406.5 0.5,-406.5 110.5,-406.5 110.5,-406.5 0.5,-406.5"/>
<polygon fill="none" stroke="#666666" points="0.5,-320.75 0.5,-454.75 110.5,-454.75 110.5,-320.75 0.5,-320.75"/>
</a>
</g>
</g>
<!-- Node2&#45;&gt;Node3 -->
<g id="edge2_Node000002_Node000003" class="edge">
<title>Node2&#45;&gt;Node3</title>
<g id="a_edge2_Node000002_Node000003"><a xlink:title=" ">
<path fill="none" stroke="#63b8ff" d="M119.93,-630.58C107.46,-583.77 87.46,-508.7 73.05,-454.61"/>
<polygon fill="none" stroke="#63b8ff" points="116.51,-631.33 122.47,-640.09 123.27,-629.53 116.51,-631.33"/>
</a>
</g>
</g>
<!-- Node5 -->
<g id="Node000005" class="node">
<title>Node5</title>
<g id="a_Node000005"><a xlink:href="classBPMNOS_1_1Execution_1_1Engine.html" target="_top" xlink:title=" ">
<polygon fill="white" stroke="none" points="286.25,-605.5 128.75,-605.5 128.75,-170 286.25,-170 286.25,-605.5"/>
<text xml:space="preserve" text-anchor="start" x="156.5" y="-592" font-family="Helvetica,sans-Serif" font-size="10.00">BPMNOS::Execution::</text>
<text xml:space="preserve" text-anchor="start" x="191" y="-579.25" font-family="Helvetica,sans-Serif" font-size="10.00">Engine</text>
<text xml:space="preserve" text-anchor="start" x="132.75" y="-562.5" font-family="Helvetica,sans-Serif" font-size="10.00">+</text>
<text xml:space="preserve" text-anchor="start" x="145" y="-562.5" font-family="Helvetica,sans-Serif" font-size="10.00">wait</text>
<text xml:space="preserve" text-anchor="start" x="132.75" y="-545.75" font-family="Helvetica,sans-Serif" font-size="10.00">+</text>
<text xml:space="preserve" text-anchor="start" x="145" y="-545.75" font-family="Helvetica,sans-Serif" font-size="10.00">SLEEP</text>
<text xml:space="preserve" text-anchor="start" x="132.75" y="-529" font-family="Helvetica,sans-Serif" font-size="10.00">#</text>
<text xml:space="preserve" text-anchor="start" x="145" y="-529" font-family="Helvetica,sans-Serif" font-size="10.00">commands</text>
<text xml:space="preserve" text-anchor="start" x="132.75" y="-512.25" font-family="Helvetica,sans-Serif" font-size="10.00">#</text>
<text xml:space="preserve" text-anchor="start" x="145" y="-512.25" font-family="Helvetica,sans-Serif" font-size="10.00">model</text>
<text xml:space="preserve" text-anchor="start" x="132.75" y="-495.5" font-family="Helvetica,sans-Serif" font-size="10.00">#</text>
<text xml:space="preserve" text-anchor="start" x="145" y="-495.5" font-family="Helvetica,sans-Serif" font-size="10.00">systemState</text>
<text xml:space="preserve" text-anchor="start" x="132.75" y="-478.75" font-family="Helvetica,sans-Serif" font-size="10.00">#</text>
<text xml:space="preserve" text-anchor="start" x="145" y="-478.75" font-family="Helvetica,sans-Serif" font-size="10.00">conditionalEventObserver</text>
<text xml:space="preserve" text-anchor="start" x="132.75" y="-462" font-family="Helvetica,sans-Serif" font-size="10.00">#</text>
<text xml:space="preserve" text-anchor="start" x="145" y="-462" font-family="Helvetica,sans-Serif" font-size="10.00">environment</text>
<text xml:space="preserve" text-anchor="start" x="132.75" y="-445.25" font-family="Helvetica,sans-Serif" font-size="10.00">+</text>
<text xml:space="preserve" text-anchor="start" x="145" y="-445.25" font-family="Helvetica,sans-Serif" font-size="10.00">Engine()</text>
<text xml:space="preserve" text-anchor="start" x="132.75" y="-428.5" font-family="Helvetica,sans-Serif" font-size="10.00">+</text>
<text xml:space="preserve" text-anchor="start" x="145" y="-428.5" font-family="Helvetica,sans-Serif" font-size="10.00">~Engine()</text>
<text xml:space="preserve" text-anchor="start" x="132.75" y="-411.75" font-family="Helvetica,sans-Serif" font-size="10.00">+</text>
<text xml:space="preserve" text-anchor="start" x="145" y="-411.75" font-family="Helvetica,sans-Serif" font-size="10.00">run()</text>
<text xml:space="preserve" text-anchor="start" x="132.75" y="-395" font-family="Helvetica,sans-Serif" font-size="10.00">+</text>
<text xml:space="preserve" text-anchor="start" x="145" y="-395" font-family="Helvetica,sans-Serif" font-size="10.00">initialize()</text>
<text xml:space="preserve" text-anchor="start" x="132.75" y="-378.25" font-family="Helvetica,sans-Serif" font-size="10.00">+</text>
<text xml:space="preserve" text-anchor="start" x="145" y="-378.25" font-family="Helvetica,sans-Serif" font-size="10.00">initializeSystemState()</text>
<text xml:space="preserve" text-anchor="start" x="132.75" y="-361.5" font-family="Helvetica,sans-Serif" font-size="10.00">+</text>
<text xml:space="preserve" text-anchor="start" x="145" y="-361.5" font-family="Helvetica,sans-Serif" font-size="10.00">resume()</text>
<text xml:space="preserve" text-anchor="start" x="132.75" y="-344.75" font-family="Helvetica,sans-Serif" font-size="10.00">+</text>
<text xml:space="preserve" text-anchor="start" x="145" y="-344.75" font-family="Helvetica,sans-Serif" font-size="10.00">resume()</text>
<text xml:space="preserve" text-anchor="start" x="132.75" y="-328" font-family="Helvetica,sans-Serif" font-size="10.00">+</text>
<text xml:space="preserve" text-anchor="start" x="145" y="-328" font-family="Helvetica,sans-Serif" font-size="10.00">resume()</text>
<text xml:space="preserve" text-anchor="start" x="132.75" y="-311.25" font-family="Helvetica,sans-Serif" font-size="10.00">+</text>
<text xml:space="preserve" text-anchor="start" x="145" y="-311.25" font-family="Helvetica,sans-Serif" font-size="10.00">advance()</text>
<text xml:space="preserve" text-anchor="start" x="132.75" y="-294.5" font-family="Helvetica,sans-Serif" font-size="10.00">+</text>
<text xml:space="preserve" text-anchor="start" x="145" y="-294.5" font-family="Helvetica,sans-Serif" font-size="10.00">process()</text>
<text xml:space="preserve" text-anchor="start" x="145" y="-277.75" font-family="Helvetica,sans-Serif" font-size="10.00">and 13 more...</text>
<text xml:space="preserve" text-anchor="start" x="132.75" y="-261" font-family="Helvetica,sans-Serif" font-size="10.00">#</text>
<text xml:space="preserve" text-anchor="start" x="145" y="-261" font-family="Helvetica,sans-Serif" font-size="10.00">processCommands()</text>
<text xml:space="preserve" text-anchor="start" x="132.75" y="-244.25" font-family="Helvetica,sans-Serif" font-size="10.00">#</text>
<text xml:space="preserve" text-anchor="start" x="145" y="-244.25" font-family="Helvetica,sans-Serif" font-size="10.00">broadcastSignal()</text>
<text xml:space="preserve" text-anchor="start" x="132.75" y="-227.5" font-family="Helvetica,sans-Serif" font-size="10.00">#</text>
<text xml:space="preserve" text-anchor="start" x="145" y="-227.5" font-family="Helvetica,sans-Serif" font-size="10.00">triggerInstance()</text>
<text xml:space="preserve" text-anchor="start" x="132.75" y="-210.75" font-family="Helvetica,sans-Serif" font-size="10.00">#</text>
<text xml:space="preserve" text-anchor="start" x="145" y="-210.75" font-family="Helvetica,sans-Serif" font-size="10.00">triggerInstanceByMessage()</text>
<text xml:space="preserve" text-anchor="start" x="132.75" y="-194" font-family="Helvetica,sans-Serif" font-size="10.00">#</text>
<text xml:space="preserve" text-anchor="start" x="145" y="-194" font-family="Helvetica,sans-Serif" font-size="10.00">deleteInstance()</text>
<text xml:space="preserve" text-anchor="start" x="132.75" y="-177.25" font-family="Helvetica,sans-Serif" font-size="10.00">#</text>
<text xml:space="preserve" text-anchor="start" x="145" y="-177.25" font-family="Helvetica,sans-Serif" font-size="10.00">acceptScenario()</text>
<polygon fill="#666666" stroke="#666666" points="128.75,-574 128.75,-574 286.25,-574 286.25,-574 128.75,-574"/>
<polygon fill="#666666" stroke="#666666" points="128.75,-456.75 128.75,-456.75 143,-456.75 143,-456.75 128.75,-456.75"/>
<polygon fill="#666666" stroke="#666666" points="143,-456.75 143,-456.75 286.25,-456.75 286.25,-456.75 143,-456.75"/>
<polygon fill="none" stroke="#666666" points="128.75,-170 128.75,-605.5 286.25,-605.5 286.25,-170 128.75,-170"/>
</a>
</g>
</g>
<!-- Node2&#45;&gt;Node5 -->
<g id="edge4_Node000002_Node000005" class="edge">
<title>Node2&#45;&gt;Node5</title>
<g id="a_edge4_Node000002_Node000005"><a xlink:title=" ">
<path fill="none" stroke="#63b8ff" d="M143.1,-630.46C145.16,-622.75 147.41,-614.27 149.82,-605.25"/>
<polygon fill="none" stroke="#63b8ff" points="139.73,-629.53 140.53,-640.09 146.49,-631.33 139.73,-629.53"/>
</a>
</g>
</g>
<!-- Node4 -->
<g id="Node000004" class="node">
<title>Node4</title>
<g id="a_Node000004"><a xlink:href="classBPMNOS_1_1Execution_1_1GreedyController.html" target="_top" xlink:title="A controller dispatching the first feasible decision in priority order.">
<polygon fill="white" stroke="none" points="111,-134 0,-134 0,0 111,0 111,-134"/>
<text xml:space="preserve" text-anchor="start" x="4.5" y="-120.5" font-family="Helvetica,sans-Serif" font-size="10.00">BPMNOS::Execution::</text>
<text xml:space="preserve" text-anchor="start" x="13.88" y="-107.75" font-family="Helvetica,sans-Serif" font-size="10.00">GreedyController</text>
<text xml:space="preserve" text-anchor="start" x="4" y="-91" font-family="Helvetica,sans-Serif" font-size="10.00">+</text>
<text xml:space="preserve" text-anchor="start" x="16.25" y="-91" font-family="Helvetica,sans-Serif" font-size="10.00">dispatchers</text>
<text xml:space="preserve" text-anchor="start" x="4" y="-74.25" font-family="Helvetica,sans-Serif" font-size="10.00">#</text>
<text xml:space="preserve" text-anchor="start" x="16.25" y="-74.25" font-family="Helvetica,sans-Serif" font-size="10.00">config</text>
<text xml:space="preserve" text-anchor="start" x="4" y="-57.5" font-family="Helvetica,sans-Serif" font-size="10.00">+</text>
<text xml:space="preserve" text-anchor="start" x="16.25" y="-57.5" font-family="Helvetica,sans-Serif" font-size="10.00">GreedyController()</text>
<text xml:space="preserve" text-anchor="start" x="4" y="-40.75" font-family="Helvetica,sans-Serif" font-size="10.00">+</text>
<text xml:space="preserve" text-anchor="start" x="16.25" y="-40.75" font-family="Helvetica,sans-Serif" font-size="10.00">connect()</text>
<text xml:space="preserve" text-anchor="start" x="4" y="-24" font-family="Helvetica,sans-Serif" font-size="10.00">+</text>
<text xml:space="preserve" text-anchor="start" x="16.25" y="-24" font-family="Helvetica,sans-Serif" font-size="10.00">default_config()</text>
<text xml:space="preserve" text-anchor="start" x="4" y="-7.25" font-family="Helvetica,sans-Serif" font-size="10.00">#</text>
<text xml:space="preserve" text-anchor="start" x="16.25" y="-7.25" font-family="Helvetica,sans-Serif" font-size="10.00">dispatchEvent()</text>
<polygon fill="#666666" stroke="#666666" points="0,-102.5 0,-102.5 111,-102.5 111,-102.5 0,-102.5"/>
<polygon fill="#666666" stroke="#666666" points="0,-69 0,-69 14.25,-69 14.25,-69 0,-69"/>
<polygon fill="#666666" stroke="#666666" points="14.25,-69 14.25,-69 111,-69 111,-69 14.25,-69"/>
<polygon fill="none" stroke="#666666" points="0,0 0,-134 111,-134 111,0 0,0"/>
</a>
</g>
</g>
<!-- Node3&#45;&gt;Node4 -->
<g id="edge3_Node000003_Node000004" class="edge">
<title>Node3&#45;&gt;Node4</title>
<g id="a_edge3_Node000003_Node000004"><a xlink:title=" ">
<path fill="none" stroke="#63b8ff" d="M55.5,-309.89C55.5,-256.11 55.5,-185.02 55.5,-133.85"/>
<polygon fill="none" stroke="#63b8ff" points="52,-309.58 55.5,-319.58 59,-309.58 52,-309.58"/>
</a>
</g>
</g>
</g>
</svg>
