<?xml version="1.0" encoding="UTF-8" standalone="no"?>
<!DOCTYPE svg PUBLIC "-//W3C//DTD SVG 1.1//EN"
 "http://www.w3.org/Graphics/SVG/1.1/DTD/svg11.dtd">
<!-- Generated by graphviz version 14.1.2 (0)
 -->
<!-- Title: BPMNOS::Execution::Environment Pages: 1 -->
<svg width="118pt" height="262pt"
 viewBox="0.00 0.00 118.00 262.00" xmlns="http://www.w3.org/2000/svg" xmlns:xlink="http://www.w3.org/1999/xlink">
<g id="graph0" class="graph" transform="scale(1 1) rotate(0) translate(4 257.75)">
<title>BPMNOS::Execution::Environment</title>
<!-- Node1 -->
<g id="Node000001" class="node">
<title>Node1</title>
<g id="a_Node000001"><a xlink:title="Class connecting a run to the scenario it executes.">
<polygon fill="#999999" stroke="none" points="110,-134 0,-134 0,0 110,0 110,-134"/>
<text xml:space="preserve" text-anchor="start" x="4" y="-120.5" font-family="Helvetica,sans-Serif" font-size="10.00">BPMNOS::Execution::</text>
<text xml:space="preserve" text-anchor="start" x="23.88" y="-107.75" font-family="Helvetica,sans-Serif" font-size="10.00">Environment</text>
<text xml:space="preserve" text-anchor="start" x="53.5" y="-91" font-family="Helvetica,sans-Serif" font-size="10.00"> </text>
<text xml:space="preserve" text-anchor="start" x="7.31" y="-74.25" font-family="Helvetica,sans-Serif" font-size="10.00">+</text>
<text xml:space="preserve" text-anchor="start" x="22.88" y="-74.25" font-family="Helvetica,sans-Serif" font-size="10.00">connect()</text>
<text xml:space="preserve" text-anchor="start" x="7.31" y="-57.5" font-family="Helvetica,sans-Serif" font-size="10.00">+</text>
<text xml:space="preserve" text-anchor="start" x="22.88" y="-57.5" font-family="Helvetica,sans-Serif" font-size="10.00">notice()</text>
<text xml:space="preserve" text-anchor="start" x="7.31" y="-40.75" font-family="Helvetica,sans-Serif" font-size="10.00">+</text>
<text xml:space="preserve" text-anchor="start" x="22.88" y="-40.75" font-family="Helvetica,sans-Serif" font-size="10.00">dispatchEvent()</text>
<text xml:space="preserve" text-anchor="start" x="7.31" y="-24" font-family="Helvetica,sans-Serif" font-size="10.00">+</text>
<text xml:space="preserve" text-anchor="start" x="22.88" y="-24" font-family="Helvetica,sans-Serif" font-size="10.00">advance()</text>
<text xml:space="preserve" text-anchor="start" x="7.31" y="-7.25" font-family="Helvetica,sans-Serif" font-size="10.00">+</text>
<text xml:space="preserve" text-anchor="start" x="22.88" y="-7.25" font-family="Helvetica,sans-Serif" font-size="10.00">setScenario()</text>
<polygon fill="#666666" stroke="#666666" points="0,-102.5 0,-102.5 110,-102.5 110,-102.5 0,-102.5"/>
<polygon fill="#666666" stroke="#666666" points="0,-85.75 0,-85.75 110,-85.75 110,-85.75 0,-85.75"/>
<polygon fill="none" stroke="#666666" points="0,0 0,-134 110,-134 110,0 0,0"/>
</a>
</g>
</g>
<!-- Node2 -->
<g id="Node000002" class="node">
<title>Node2</title>
<g id="a_Node000002"><a xlink:href="classBPMNOS_1_1Execution_1_1Observer.html" target="_top" xlink:title=" ">
<polygon fill="white" stroke="none" points="110,-253.75 0,-253.75 0,-170 110,-170 110,-253.75"/>
<text xml:space="preserve" text-anchor="start" x="4" y="-240.25" font-family="Helvetica,sans-Serif" font-size="10.00">BPMNOS::Execution::</text>
<text xml:space="preserve" text-anchor="start" x="32.88" y="-227.5" font-family="Helvetica,sans-Serif" font-size="10.00">Observer</text>
<text xml:space="preserve" text-anchor="start" x="53.5" y="-210.75" font-family="Helvetica,sans-Serif" font-size="10.00"> </text>
<text xml:space="preserve" text-anchor="start" x="11.44" y="-194" font-family="Helvetica,sans-Serif" font-size="10.00">+</text>
<text xml:space="preserve" text-anchor="start" x="31.12" y="-194" font-family="Helvetica,sans-Serif" font-size="10.00">~Observer()</text>
<text xml:space="preserve" text-anchor="start" x="11.44" y="-177.25" font-family="Helvetica,sans-Serif" font-size="10.00">+</text>
<text xml:space="preserve" text-anchor="start" x="31.12" y="-177.25" font-family="Helvetica,sans-Serif" font-size="10.00">notice()</text>
<polygon fill="#666666" stroke="#666666" points="0,-222.25 0,-222.25 110,-222.25 110,-222.25 0,-222.25"/>
<polygon fill="#666666" stroke="#666666" points="0,-205.5 0,-205.5 110,-205.5 110,-205.5 0,-205.5"/>
<polygon fill="none" stroke="#666666" points="0,-170 0,-253.75 110,-253.75 110,-170 0,-170"/>
</a>
</g>
</g>
<!-- Node2&#45;&gt;Node1 -->
<g id="edge1_Node000001_Node000002" class="edge">
<title>Node2&#45;&gt;Node1</title>
<g id="a_edge1_Node000001_Node000002"><a xlink:title=" ">
<path fill="none" stroke="#63b8ff" d="M55,-159.03C55,-150.83 55,-142.26 55,-133.8"/>
<polygon fill="none" stroke="#63b8ff" points="51.5,-158.8 55,-168.8 58.5,-158.8 51.5,-158.8"/>
</a>
</g>
</g>
</g>
</svg>
