<?xml version="1.0" encoding="UTF-8" standalone="no"?>
<!DOCTYPE svg PUBLIC "-//W3C//DTD SVG 1.1//EN"
 "http://www.w3.org/Graphics/SVG/1.1/DTD/svg11.dtd">
<!-- Generated by graphviz version 2.43.0 (0)
 -->
<!-- Title: XML::bpmnos::tOperator Pages: 1 -->
<svg width="163pt" height="677pt"
 viewBox="0.00 0.00 163.00 677.00" xmlns="http://www.w3.org/2000/svg" xmlns:xlink="http://www.w3.org/1999/xlink">
<g id="graph0" class="graph" transform="scale(1 1) rotate(0) translate(4 673)">
<title>XML::bpmnos::tOperator</title>
<!-- Node1 -->
<g id="Node000001" class="node">
<title>Node1</title>
<g id="a_Node000001"><a xlink:title=" ">
<polygon fill="#999999" stroke="transparent" points="142,-164 13,-164 13,-85 142,-85 142,-164"/>
<text text-anchor="start" x="18.5" y="-151.5" font-family="Helvetica,sans-Serif" font-size="10.00">XML::bpmnos::tOperator</text>
<text text-anchor="start" x="30.5" y="-136.5" font-family="Helvetica,sans-Serif" font-size="10.00">+</text>
<text text-anchor="start" x="56.5" y="-136.5" font-family="Helvetica,sans-Serif" font-size="10.00">id</text>
<text text-anchor="start" x="30.5" y="-121.5" font-family="Helvetica,sans-Serif" font-size="10.00">+</text>
<text text-anchor="start" x="56.5" y="-121.5" font-family="Helvetica,sans-Serif" font-size="10.00">expression</text>
<text text-anchor="start" x="30.5" y="-106.5" font-family="Helvetica,sans-Serif" font-size="10.00">+</text>
<text text-anchor="start" x="56.5" y="-106.5" font-family="Helvetica,sans-Serif" font-size="10.00">defaults</text>
<text text-anchor="start" x="30.5" y="-91.5" font-family="Helvetica,sans-Serif" font-size="10.00">#</text>
<text text-anchor="start" x="56.5" y="-91.5" font-family="Helvetica,sans-Serif" font-size="10.00">tOperator()</text>
<polygon fill="#666666" stroke="#666666" points="13.5,-146.5 13.5,-146.5 142.5,-146.5 142.5,-146.5 13.5,-146.5"/>
<polygon fill="#666666" stroke="#666666" points="13.5,-101.5 13.5,-101.5 54.5,-101.5 54.5,-101.5 13.5,-101.5"/>
<polygon fill="#666666" stroke="#666666" points="54.5,-101.5 54.5,-101.5 142.5,-101.5 142.5,-101.5 54.5,-101.5"/>
<polygon fill="none" stroke="#666666" points="13,-85 13,-164 142,-164 142,-85 13,-85"/>
</a>
</g>
</g>
<!-- Node3 -->
<g id="Node000003" class="node">
<title>Node3</title>
<g id="a_Node000003"><a xlink:href="classXML_1_1bpmnos_1_1operator__.html" target="_top" xlink:title=" ">
<polygon fill="white" stroke="transparent" points="142,-49 13,-49 13,0 142,0 142,-49"/>
<text text-anchor="start" x="18.5" y="-36.5" font-family="Helvetica,sans-Serif" font-size="10.00">XML::bpmnos::operator_</text>
<text text-anchor="start" x="30.5" y="-21.5" font-family="Helvetica,sans-Serif" font-size="10.00">+</text>
<text text-anchor="start" x="56.5" y="-21.5" font-family="Helvetica,sans-Serif" font-size="10.00">defaults</text>
<text text-anchor="start" x="30.5" y="-6.5" font-family="Helvetica,sans-Serif" font-size="10.00">#</text>
<text text-anchor="start" x="56.5" y="-6.5" font-family="Helvetica,sans-Serif" font-size="10.00">operator_()</text>
<polygon fill="#666666" stroke="#666666" points="13.5,-31.5 13.5,-31.5 142.5,-31.5 142.5,-31.5 13.5,-31.5"/>
<polygon fill="#666666" stroke="#666666" points="13.5,-16.5 13.5,-16.5 54.5,-16.5 54.5,-16.5 13.5,-16.5"/>
<polygon fill="#666666" stroke="#666666" points="54.5,-16.5 54.5,-16.5 142.5,-16.5 142.5,-16.5 54.5,-16.5"/>
<polygon fill="none" stroke="#666666" points="13,0 13,-49 142,-49 142,0 13,0"/>
</a>
</g>
</g>
<!-- Node1&#45;&gt;Node3 -->
<g id="edge2_Node000001_Node000003" class="edge">
<title>Node1&#45;&gt;Node3</title>
<g id="a_edge2_Node000001_Node000003"><a xlink:title=" ">
<path fill="none" stroke="#63b8ff" d="M77.5,-74.72C77.5,-65.75 77.5,-56.78 77.5,-49"/>
<polygon fill="none" stroke="#63b8ff" points="74,-74.77 77.5,-84.77 81,-74.77 74,-74.77"/>
</a>
</g>
</g>
<!-- Node2 -->
<g id="Node000002" class="node">
<title>Node2</title>
<g id="a_Node000002"><a target="_parent" xlink:href="https://bpmn-os.github.io/bpmnpp/classXML_1_1XMLObject.html" xlink:title=" ">
<polygon fill="white" stroke="transparent" points="155,-669 0,-669 0,-200 155,-200 155,-669"/>
<text text-anchor="start" x="38" y="-656.5" font-family="Helvetica,sans-Serif" font-size="10.00">XML::XMLObject</text>
<text text-anchor="start" x="4.5" y="-641.5" font-family="Helvetica,sans-Serif" font-size="10.00">+</text>
<text text-anchor="start" x="17.5" y="-641.5" font-family="Helvetica,sans-Serif" font-size="10.00">xmlns</text>
<text text-anchor="start" x="4.5" y="-626.5" font-family="Helvetica,sans-Serif" font-size="10.00">+</text>
<text text-anchor="start" x="17.5" y="-626.5" font-family="Helvetica,sans-Serif" font-size="10.00">className</text>
<text text-anchor="start" x="4.5" y="-611.5" font-family="Helvetica,sans-Serif" font-size="10.00">+</text>
<text text-anchor="start" x="17.5" y="-611.5" font-family="Helvetica,sans-Serif" font-size="10.00">prefix</text>
<text text-anchor="start" x="4.5" y="-596.5" font-family="Helvetica,sans-Serif" font-size="10.00">+</text>
<text text-anchor="start" x="17.5" y="-596.5" font-family="Helvetica,sans-Serif" font-size="10.00">elementName</text>
<text text-anchor="start" x="4.5" y="-581.5" font-family="Helvetica,sans-Serif" font-size="10.00">+</text>
<text text-anchor="start" x="17.5" y="-581.5" font-family="Helvetica,sans-Serif" font-size="10.00">textContent</text>
<text text-anchor="start" x="4.5" y="-566.5" font-family="Helvetica,sans-Serif" font-size="10.00">+</text>
<text text-anchor="start" x="17.5" y="-566.5" font-family="Helvetica,sans-Serif" font-size="10.00">children</text>
<text text-anchor="start" x="4.5" y="-551.5" font-family="Helvetica,sans-Serif" font-size="10.00">+</text>
<text text-anchor="start" x="17.5" y="-551.5" font-family="Helvetica,sans-Serif" font-size="10.00">attributes</text>
<text text-anchor="start" x="4.5" y="-536.5" font-family="Helvetica,sans-Serif" font-size="10.00">+</text>
<text text-anchor="start" x="17.5" y="-536.5" font-family="Helvetica,sans-Serif" font-size="10.00">defaults</text>
<text text-anchor="start" x="4.5" y="-521.5" font-family="Helvetica,sans-Serif" font-size="10.00">#</text>
<text text-anchor="start" x="17.5" y="-521.5" font-family="Helvetica,sans-Serif" font-size="10.00">factory</text>
<text text-anchor="start" x="4.5" y="-506.5" font-family="Helvetica,sans-Serif" font-size="10.00">+</text>
<text text-anchor="start" x="17.5" y="-506.5" font-family="Helvetica,sans-Serif" font-size="10.00">~XMLObject()</text>
<text text-anchor="start" x="4.5" y="-491.5" font-family="Helvetica,sans-Serif" font-size="10.00">+</text>
<text text-anchor="start" x="17.5" y="-491.5" font-family="Helvetica,sans-Serif" font-size="10.00">is()</text>
<text text-anchor="start" x="4.5" y="-476.5" font-family="Helvetica,sans-Serif" font-size="10.00">+</text>
<text text-anchor="start" x="17.5" y="-476.5" font-family="Helvetica,sans-Serif" font-size="10.00">get()</text>
<text text-anchor="start" x="4.5" y="-461.5" font-family="Helvetica,sans-Serif" font-size="10.00">+</text>
<text text-anchor="start" x="17.5" y="-461.5" font-family="Helvetica,sans-Serif" font-size="10.00">find()</text>
<text text-anchor="start" x="4.5" y="-446.5" font-family="Helvetica,sans-Serif" font-size="10.00">+</text>
<text text-anchor="start" x="17.5" y="-446.5" font-family="Helvetica,sans-Serif" font-size="10.00">stringify()</text>
<text text-anchor="start" x="4.5" y="-431.5" font-family="Helvetica,sans-Serif" font-size="10.00">+</text>
<text text-anchor="start" x="17.5" y="-431.5" font-family="Helvetica,sans-Serif" font-size="10.00">format()</text>
<text text-anchor="start" x="4.5" y="-416.5" font-family="Helvetica,sans-Serif" font-size="10.00">+</text>
<text text-anchor="start" x="17.5" y="-416.5" font-family="Helvetica,sans-Serif" font-size="10.00">getRequiredChild()</text>
<text text-anchor="start" x="4.5" y="-401.5" font-family="Helvetica,sans-Serif" font-size="10.00">+</text>
<text text-anchor="start" x="17.5" y="-401.5" font-family="Helvetica,sans-Serif" font-size="10.00">getOptionalChild()</text>
<text text-anchor="start" x="4.5" y="-386.5" font-family="Helvetica,sans-Serif" font-size="10.00">+</text>
<text text-anchor="start" x="17.5" y="-386.5" font-family="Helvetica,sans-Serif" font-size="10.00">getChildren()</text>
<text text-anchor="start" x="4.5" y="-371.5" font-family="Helvetica,sans-Serif" font-size="10.00">+</text>
<text text-anchor="start" x="17.5" y="-371.5" font-family="Helvetica,sans-Serif" font-size="10.00">getRequiredChildByName()</text>
<text text-anchor="start" x="17.5" y="-356.5" font-family="Helvetica,sans-Serif" font-size="10.00">and 18 more...</text>
<text text-anchor="start" x="4.5" y="-341.5" font-family="Helvetica,sans-Serif" font-size="10.00">+</text>
<text text-anchor="start" x="17.5" y="-341.5" font-family="Helvetica,sans-Serif" font-size="10.00">createFromStream()</text>
<text text-anchor="start" x="4.5" y="-326.5" font-family="Helvetica,sans-Serif" font-size="10.00">+</text>
<text text-anchor="start" x="17.5" y="-326.5" font-family="Helvetica,sans-Serif" font-size="10.00">createFromString()</text>
<text text-anchor="start" x="4.5" y="-311.5" font-family="Helvetica,sans-Serif" font-size="10.00">+</text>
<text text-anchor="start" x="17.5" y="-311.5" font-family="Helvetica,sans-Serif" font-size="10.00">createFromFile()</text>
<text text-anchor="start" x="4.5" y="-296.5" font-family="Helvetica,sans-Serif" font-size="10.00">+</text>
<text text-anchor="start" x="17.5" y="-296.5" font-family="Helvetica,sans-Serif" font-size="10.00">createFromStream()</text>
<text text-anchor="start" x="4.5" y="-281.5" font-family="Helvetica,sans-Serif" font-size="10.00">+</text>
<text text-anchor="start" x="17.5" y="-281.5" font-family="Helvetica,sans-Serif" font-size="10.00">createFromString()</text>
<text text-anchor="start" x="4.5" y="-266.5" font-family="Helvetica,sans-Serif" font-size="10.00">+</text>
<text text-anchor="start" x="17.5" y="-266.5" font-family="Helvetica,sans-Serif" font-size="10.00">createFromFile()</text>
<text text-anchor="start" x="4.5" y="-251.5" font-family="Helvetica,sans-Serif" font-size="10.00">#</text>
<text text-anchor="start" x="17.5" y="-251.5" font-family="Helvetica,sans-Serif" font-size="10.00">XMLObject()</text>
<text text-anchor="start" x="4.5" y="-236.5" font-family="Helvetica,sans-Serif" font-size="10.00">#</text>
<text text-anchor="start" x="17.5" y="-236.5" font-family="Helvetica,sans-Serif" font-size="10.00">XMLObject()</text>
<text text-anchor="start" x="4.5" y="-221.5" font-family="Helvetica,sans-Serif" font-size="10.00">#</text>
<text text-anchor="start" x="17.5" y="-221.5" font-family="Helvetica,sans-Serif" font-size="10.00">createObject()</text>
<text text-anchor="start" x="4.5" y="-206.5" font-family="Helvetica,sans-Serif" font-size="10.00">#</text>
<text text-anchor="start" x="17.5" y="-206.5" font-family="Helvetica,sans-Serif" font-size="10.00">createObject()</text>
<polygon fill="#666666" stroke="#666666" points="0.5,-651.5 0.5,-651.5 155.5,-651.5 155.5,-651.5 0.5,-651.5"/>
<polygon fill="#666666" stroke="#666666" points="0.5,-516.5 0.5,-516.5 15.5,-516.5 15.5,-516.5 0.5,-516.5"/>
<polygon fill="#666666" stroke="#666666" points="15.5,-516.5 15.5,-516.5 155.5,-516.5 155.5,-516.5 15.5,-516.5"/>
<polygon fill="none" stroke="#666666" points="0,-200 0,-669 155,-669 155,-200 0,-200"/>
</a>
</g>
</g>
<!-- Node2&#45;&gt;Node1 -->
<g id="edge1_Node000001_Node000002" class="edge">
<title>Node2&#45;&gt;Node1</title>
<g id="a_edge1_Node000001_Node000002"><a xlink:title=" ">
<path fill="none" stroke="#63b8ff" d="M77.5,-189.52C77.5,-180.39 77.5,-171.91 77.5,-164.31"/>
<polygon fill="none" stroke="#63b8ff" points="74,-189.67 77.5,-199.67 81,-189.67 74,-189.67"/>
</a>
</g>
</g>
</g>
</svg>
