<?xml version="1.0" encoding="UTF-8" standalone="no"?>
<!DOCTYPE svg PUBLIC "-//W3C//DTD SVG 1.1//EN"
 "http://www.w3.org/Graphics/SVG/1.1/DTD/svg11.dtd">
<!-- Generated by graphviz version 2.43.0 (0)
 -->
<!-- Title: execution/controller Pages: 1 -->
<svg width="268pt" height="141pt"
 viewBox="0.00 0.00 267.50 141.00" xmlns="http://www.w3.org/2000/svg" xmlns:xlink="http://www.w3.org/1999/xlink">
<g id="graph0" class="graph" transform="scale(1 1) rotate(0) translate(4 137)">
<title>execution/controller</title>
<g id="clust1" class="cluster">
<title>clusterdir_5492fae2ae9e8e8e3b45371f34937227</title>
<g id="a_clust1"><a xlink:href="dir_5492fae2ae9e8e8e3b45371f34937227.html" target="_top" xlink:title="execution">
<polygon fill="#edf0f7" stroke="#404040" stroke-dasharray="5,2" points="8,-8 8,-125 203,-125 203,-8 8,-8"/>
<text text-anchor="middle" x="105.5" y="-113" font-family="Helvetica,sans-Serif" font-size="10.00">execution</text>
</a>
</g>
</g>
<g id="clust2" class="cluster">
<title>clusterdir_f6068031c8ed86da3580f80ca3a17e26</title>
<g id="a_clust2"><a xlink:href="dir_f6068031c8ed86da3580f80ca3a17e26.html" target="_top">
<polygon fill="#edf0f7" stroke="#404040" stroke-width="2" points="66,-63 66,-98 195,-98 195,-63 66,-63"/>
</a>
</g>
</g>
<!-- dir_11b717f8bbe9adcce5d847a0cd87900f -->
<g id="node1" class="node">
<title>dir_11b717f8bbe9adcce5d847a0cd87900f</title>
<g id="a_node1"><a xlink:href="dir_11b717f8bbe9adcce5d847a0cd87900f.html" target="_top" xlink:title="engine">
<polygon fill="#a2b4d6" stroke="red" points="66,-35 16,-35 16,-16 66,-16 66,-35"/>
<text text-anchor="middle" x="41" y="-23" font-family="Helvetica,sans-Serif" font-size="10.00">engine</text>
</a>
</g>
</g>
<!-- dir_6e332d3e931a265118348dad6ed62968 -->
<g id="node2" class="node">
<title>dir_6e332d3e931a265118348dad6ed62968</title>
<g id="a_node2"><a xlink:href="dir_6e332d3e931a265118348dad6ed62968.html" target="_top" xlink:title="utility">
<polygon fill="#a2b4d6" stroke="red" points="129.5,-35 84.5,-35 84.5,-16 129.5,-16 129.5,-35"/>
<text text-anchor="middle" x="107" y="-23" font-family="Helvetica,sans-Serif" font-size="10.00">utility</text>
</a>
</g>
</g>
<!-- dir_ac0f4f38d1a2e6e39b84bc916960c435 -->
<g id="node3" class="node">
<title>dir_ac0f4f38d1a2e6e39b84bc916960c435</title>
<g id="a_node3"><a xlink:href="dir_ac0f4f38d1a2e6e39b84bc916960c435.html" target="_top" xlink:title="model">
<polygon fill="#a2b4d6" stroke="red" points="194.5,-35 147.5,-35 147.5,-16 194.5,-16 194.5,-35"/>
<text text-anchor="middle" x="171" y="-23" font-family="Helvetica,sans-Serif" font-size="10.00">model</text>
</a>
</g>
</g>
<!-- dir_f6068031c8ed86da3580f80ca3a17e26 -->
<g id="node4" class="node">
<title>dir_f6068031c8ed86da3580f80ca3a17e26</title>
<text text-anchor="middle" x="155" y="-78" font-family="Helvetica,sans-Serif" font-size="10.00">controller</text>
</g>
<!-- dir_27f4e9a048a42a026fab81ac122a06f3 -->
<g id="node5" class="node">
<title>dir_27f4e9a048a42a026fab81ac122a06f3</title>
<g id="a_node5"><a xlink:href="dir_27f4e9a048a42a026fab81ac122a06f3.html" target="_top" xlink:title="src">
<polygon fill="#a2b4d6" stroke="#404040" points="105.5,-90 74.5,-90 74.5,-71 105.5,-71 105.5,-90"/>
<text text-anchor="middle" x="90" y="-78" font-family="Helvetica,sans-Serif" font-size="10.00">src</text>
</a>
</g>
</g>
<!-- dir_27f4e9a048a42a026fab81ac122a06f3&#45;&gt;dir_11b717f8bbe9adcce5d847a0cd87900f -->
<g id="edge1" class="edge">
<title>dir_27f4e9a048a42a026fab81ac122a06f3&#45;&gt;dir_11b717f8bbe9adcce5d847a0cd87900f</title>
<g id="a_edge1"><a xlink:href="dir_000034_000015.html" target="_top">
<path fill="none" stroke="#63b8ff" d="M81.91,-70.75C74.84,-63.11 64.41,-51.82 55.85,-42.56"/>
<polygon fill="#63b8ff" stroke="#63b8ff" points="58.3,-40.06 48.94,-35.09 53.16,-44.81 58.3,-40.06"/>
</a>
</g>
<g id="a_edge1&#45;headlabel"><a xlink:href="dir_000034_000015.html" target="_top" xlink:title="92">
<text text-anchor="middle" x="62.82" y="-38.27" font-family="Helvetica,sans-Serif" font-size="10.00" fill="#63b8ff">92</text>
</a>
</g>
</g>
<!-- dir_27f4e9a048a42a026fab81ac122a06f3&#45;&gt;dir_6e332d3e931a265118348dad6ed62968 -->
<g id="edge3" class="edge">
<title>dir_27f4e9a048a42a026fab81ac122a06f3&#45;&gt;dir_6e332d3e931a265118348dad6ed62968</title>
<g id="a_edge3"><a xlink:href="dir_000034_000044.html" target="_top">
<path fill="none" stroke="#63b8ff" d="M92.81,-70.75C95.06,-63.72 98.3,-53.62 101.12,-44.84"/>
<polygon fill="#63b8ff" stroke="#63b8ff" points="104.52,-45.68 104.25,-35.09 97.86,-43.54 104.52,-45.68"/>
</a>
</g>
<g id="a_edge3&#45;headlabel"><a xlink:href="dir_000034_000044.html" target="_top" xlink:title="4">
<text text-anchor="middle" x="106.13" y="-47.47" font-family="Helvetica,sans-Serif" font-size="10.00" fill="#63b8ff">4</text>
</a>
</g>
</g>
<!-- dir_27f4e9a048a42a026fab81ac122a06f3&#45;&gt;dir_ac0f4f38d1a2e6e39b84bc916960c435 -->
<g id="edge4" class="edge">
<title>dir_27f4e9a048a42a026fab81ac122a06f3&#45;&gt;dir_ac0f4f38d1a2e6e39b84bc916960c435</title>
<g id="a_edge4"><a xlink:href="dir_000034_000028.html" target="_top">
<path fill="none" stroke="#63b8ff" d="M102.97,-70.92C106.83,-68.37 111.09,-65.57 115,-63 126.26,-55.62 138.81,-47.43 149.18,-40.68"/>
<polygon fill="#63b8ff" stroke="#63b8ff" points="151.16,-43.57 157.63,-35.18 147.34,-37.7 151.16,-43.57"/>
</a>
</g>
<g id="a_edge4&#45;headlabel"><a xlink:href="dir_000034_000028.html" target="_top" xlink:title="1">
<text text-anchor="middle" x="149.7" y="-45.41" font-family="Helvetica,sans-Serif" font-size="10.00" fill="#63b8ff">1</text>
</a>
</g>
</g>
<!-- dir_3f14f6767c31cb4a1d22c13c18cc6fc3 -->
<g id="node6" class="node">
<title>dir_3f14f6767c31cb4a1d22c13c18cc6fc3</title>
<g id="a_node6"><a xlink:href="dir_3f14f6767c31cb4a1d22c13c18cc6fc3.html" target="_top" xlink:title="model">
<polygon fill="#edf0f7" stroke="red" points="259.5,-35 212.5,-35 212.5,-16 259.5,-16 259.5,-35"/>
<text text-anchor="middle" x="236" y="-23" font-family="Helvetica,sans-Serif" font-size="10.00">model</text>
</a>
</g>
</g>
<!-- dir_27f4e9a048a42a026fab81ac122a06f3&#45;&gt;dir_3f14f6767c31cb4a1d22c13c18cc6fc3 -->
<g id="edge2" class="edge">
<title>dir_27f4e9a048a42a026fab81ac122a06f3&#45;&gt;dir_3f14f6767c31cb4a1d22c13c18cc6fc3</title>
<g id="a_edge2"><a xlink:href="dir_000034_000029.html" target="_top">
<path fill="none" stroke="#63b8ff" d="M101.79,-70.7C105.83,-67.97 110.48,-65.12 115,-63 119.1,-61.08 168.29,-46.44 202.68,-36.29"/>
<polygon fill="#63b8ff" stroke="#63b8ff" points="203.76,-39.62 212.37,-33.44 201.79,-32.91 203.76,-39.62"/>
</a>
</g>
<g id="a_edge2&#45;headlabel"><a xlink:href="dir_000034_000029.html" target="_top" xlink:title="31">
<text text-anchor="middle" x="201.12" y="-40.86" font-family="Helvetica,sans-Serif" font-size="10.00" fill="#63b8ff">31</text>
</a>
</g>
</g>
</g>
</svg>
