<?xml version="1.0" encoding="utf-8"?>
<!-- created with bpmn-js / http://bpmn.io -->
<!DOCTYPE svg PUBLIC "-//W3C//DTD SVG 1.1//EN" "http://www.w3.org/Graphics/SVG/1.1/DTD/svg11.dtd">
<svg xmlns="http://www.w3.org/2000/svg" xmlns:xlink="http://www.w3.org/1999/xlink" width="110" height="90" viewBox="935 195 110 90" version="1.1"><defs><marker id="sequenceflow-end-white-hsl_225_10_15_-1iri1mdqnztomo3pa3ut2qe02" viewBox="0 0 20 20" refX="11" refY="10" markerWidth="10" markerHeight="10" orient="auto"><path d="M 1 5 L 11 10 L 1 15 Z" style="stroke-linecap: round; stroke-linejoin: round; stroke: rgb(34, 36, 42); stroke-width: 1px; fill: rgb(34, 36, 42);"/></marker></defs><g class="djs-group"><g class="djs-element djs-shape" data-element-id="Activity_05f62rx" transform="matrix(1, 0, 0, 1, 940, 200)" style="display: block;"><g class="djs-visual"><rect x="0" y="0" width="100" height="80" rx="10" ry="10" style="stroke-linecap: round; stroke-linejoin: round; stroke: rgb(34, 36, 42); stroke-width: 2px; fill: white; fill-opacity: 0.95;"/><text style="font-family: Arial, sans-serif; font-size: 12px; font-weight: normal; fill: rgb(34, 36, 42);" lineHeight="1.2" class="djs-label"><tspan x="14.333332061767578" y="43.599999999999994">Decision task</tspan></text><path d="m 12.3765 9.8338 c 0.4627 -1.0288 0.7177 -1.5952 2.2439 -1.5952 h 0.9873 v 2.2002 l 3.2183 -3.2198 l -3.2183 -3.219 v 2.2001 h -0.9873 c -2.844 0 -3.6014 1.6833 -4.1028 2.7972 c -0.4247 0.9438 -0.6395 1.4209 -1.7567 1.4835 h -3.5866 l 3.6643 0.0012 c 1.2193 0.0612 1.9879 0.4795 2.5146 1.0179 c 0.503 -0.5141 0.7853 -1.1373 1.0233 -1.6661 z m 6.4493 5.9467 l -3.2183 -3.219 v 2.2001 h -0.9873 c -1.526 0 -1.781 -0.5667 -2.2439 -1.5952 c -0.2378 -0.5286 -0.5203 -1.152 -1.0233 -1.6662 c -0.5267 -0.5383 -1.2953 -0.9568 -2.5146 -1.0179 l -3.6643 -0.0014 v 2.0383 h 3.5866 c 1.1175 0.0625 1.3321 0.5397 1.7567 1.4835 c 0.5011 1.1139 1.2586 2.7972 4.1028 2.7972 h 0.9873 v 2.2002 z" style="stroke: black; stroke-width: 0.5px; fill: black;"/></g><rect style="fill: none; stroke-opacity: 0; stroke: white; stroke-width: 15px;" class="djs-hit djs-hit-all" x="0" y="0" width="100" height="80"/><rect x="-5" y="-5" rx="14" width="110" height="90" style="fill: none;" class="djs-outline"/></g></g></svg>