<?xml version="1.0" encoding="utf-8"?>
<!-- created with bpmn-js / http://bpmn.io -->
<!DOCTYPE svg PUBLIC "-//W3C//DTD SVG 1.1//EN" "http://www.w3.org/Graphics/SVG/1.1/DTD/svg11.dtd">
<svg xmlns="http://www.w3.org/2000/svg" xmlns:xlink="http://www.w3.org/1999/xlink" width="1377.0103759765625" height="330" viewBox="436.9896240234375 165 1377.0103759765625 330" version="1.1"><defs><marker id="sequenceflow-end-white-hsl_225_10_15_-b8gmzezzx3ks1kmxkmaojdy6x" viewBox="0 0 20 20" refX="11" refY="10" markerWidth="10" markerHeight="10" orient="auto"><path d="M 1 5 L 11 10 L 1 15 Z" style="stroke-linecap: round; stroke-linejoin: round; stroke: rgb(34, 36, 42); stroke-width: 1px; fill: rgb(34, 36, 42);"/></marker></defs><g class="djs-group"><g class="djs-element djs-shape" data-element-id="StartProcessEvent" style="display: block;" transform="matrix(1 0 0 1 442 312)"><g class="djs-visual"><circle cx="18" cy="18" r="18" style="stroke-linecap: round; stroke-linejoin: round; stroke: rgb(34, 36, 42); stroke-width: 2px; fill: white; fill-opacity: 0.95;"/></g><rect class="djs-hit djs-hit-all" x="0" y="0" width="36" height="36" style="fill: none; stroke-opacity: 0; stroke: white; stroke-width: 15px;"/><circle cx="18" cy="18" r="23" class="djs-outline" style="fill: none;"/><title>StartProcessEvent</title></g></g><g class="djs-group"><g class="djs-element djs-shape" data-element-id="CustomerTripActivity" style="display: block;" transform="matrix(1 0 0 1 545 170)"><g class="djs-visual"><rect x="0" y="0" width="1155" height="320" rx="10" ry="10" style="stroke-linecap: round; stroke-linejoin: round; stroke: rgb(34, 36, 42); stroke-width: 2px; fill: white; fill-opacity: 0.95;"/><text lineHeight="1.2" class="djs-label" style="font-family: Arial, sans-serif; font-size: 12px; font-weight: normal; fill: rgb(34, 36, 42);"><tspan x="541.328125" y="17.799999999999997">Customer trip</tspan></text><path data-marker="sequential" d="m572.5,301 m 0,3 l 10,0 m -10,3 l 10,0 m -10,3 l 10,0" style="fill: white; stroke-linecap: round; stroke-linejoin: round; stroke: rgb(34, 36, 42); stroke-width: 2px;"/></g><rect class="djs-hit djs-hit-no-move" x="0" y="0" width="1155" height="320" style="fill: none; stroke-opacity: 0; stroke: white; stroke-width: 15px;"/><rect class="djs-hit djs-hit-click-stroke" x="0" y="0" width="1155" height="320" style="fill: none; stroke-opacity: 0; stroke: white; stroke-width: 15px;"/><rect class="djs-hit djs-hit-all" x="0" y="0" width="1155" height="30" style="fill: none; stroke-opacity: 0; stroke: white; stroke-width: 15px;"/><rect x="-5" y="-5" rx="14" width="1165" height="330" class="djs-outline" style="fill: none;"/><title>CustomerTripActivity</title></g><g class="djs-children"><g class="djs-group"><g class="djs-element djs-shape" data-element-id="StartVisitEvent" style="display: block;" transform="matrix(1 0 0 1 585 240)"><g class="djs-visual"><circle cx="18" cy="18" r="18" style="stroke-linecap: round; stroke-linejoin: round; stroke: rgb(34, 36, 42); stroke-width: 2px; fill: white; fill-opacity: 0.95;"/></g><rect class="djs-hit djs-hit-all" x="0" y="0" width="36" height="36" style="fill: none; stroke-opacity: 0; stroke: white; stroke-width: 15px;"/><circle cx="18" cy="18" r="23" class="djs-outline" style="fill: none;"/><title>StartVisitEvent</title></g></g><g class="djs-group"><g class="djs-element djs-shape" data-element-id="MergeGateway_1" style="display: block;" transform="matrix(1 0 0 1 685 233)"><g class="djs-visual"><polygon points="25,0 50,25 25,50 0,25" style="stroke-linecap: round; stroke-linejoin: round; stroke: rgb(34, 36, 42); stroke-width: 2px; fill: white; fill-opacity: 0.95;"/><path d="m 16,15 7.42857142857143,9.714285714285715 -7.42857142857143,9.714285714285715 3.428571428571429,0 5.714285714285715,-7.464228571428572 5.714285714285715,7.464228571428572 3.428571428571429,0 -7.42857142857143,-9.714285714285715 7.42857142857143,-9.714285714285715 -3.428571428571429,0 -5.714285714285715,7.464228571428572 -5.714285714285715,-7.464228571428572 -3.428571428571429,0 z" style="fill: rgb(34, 36, 42); stroke-linecap: round; stroke-linejoin: round; stroke: rgb(34, 36, 42); stroke-width: 1px;"/></g><rect class="djs-hit djs-hit-all" x="0" y="0" width="50" height="50" style="fill: none; stroke-opacity: 0; stroke: white; stroke-width: 15px;"/><rect x="2" y="2" rx="4" width="46" height="46" class="djs-outline" style="transform-box: fill-box; transform: rotate(45deg); transform-origin: center center; fill: none;"/><title>MergeGateway_1</title></g></g><g class="djs-group"><g class="djs-element djs-shape" data-element-id="DriveTask" style="display: block;" transform="matrix(1 0 0 1 800 218)"><g class="djs-visual"><rect x="0" y="0" width="100" height="80" rx="10" ry="10" style="stroke-linecap: round; stroke-linejoin: round; stroke: rgb(34, 36, 42); stroke-width: 2px; fill: white; fill-opacity: 0.95;"/><text lineHeight="1.2" class="djs-label" style="font-family: Arial, sans-serif; font-size: 12px; font-weight: normal; fill: rgb(34, 36, 42);"><tspan x="35.8359375" y="43.599999999999994">Drive</tspan></text></g><rect class="djs-hit djs-hit-all" x="0" y="0" width="100" height="80" style="fill: none; stroke-opacity: 0; stroke: white; stroke-width: 15px;"/><rect x="-5" y="-5" rx="14" width="110" height="90" class="djs-outline" style="fill: none;"/><title>DriveTask</title></g></g><g class="djs-group"><g class="djs-element djs-shape" data-element-id="VisitTask" style="display: block;" transform="matrix(1 0 0 1 1470 218)"><g class="djs-visual"><rect x="0" y="0" width="100" height="80" rx="10" ry="10" style="stroke-linecap: round; stroke-linejoin: round; stroke: rgb(34, 36, 42); stroke-width: 2px; fill: white; fill-opacity: 0.95;"/><text lineHeight="1.2" class="djs-label" style="font-family: Arial, sans-serif; font-size: 12px; font-weight: normal; fill: rgb(34, 36, 42);"><tspan x="38.4404296875" y="43.599999999999994">Visit</tspan></text></g><rect class="djs-hit djs-hit-all" x="0" y="0" width="100" height="80" style="fill: none; stroke-opacity: 0; stroke: white; stroke-width: 15px;"/><rect x="-5" y="-5" rx="14" width="110" height="90" class="djs-outline" style="fill: none;"/><title>VisitTask</title></g></g><g class="djs-group"><g class="djs-element djs-shape" data-element-id="EndVisitEvent" style="display: block;" transform="matrix(1 0 0 1 1632 240)"><g class="djs-visual"><circle cx="18" cy="18" r="18" style="stroke-linecap: round; stroke-linejoin: round; stroke: rgb(34, 36, 42); stroke-width: 4px; fill: white; fill-opacity: 0.95;"/></g><rect class="djs-hit djs-hit-all" x="0" y="0" width="36" height="36" style="fill: none; stroke-opacity: 0; stroke: white; stroke-width: 15px;"/><circle cx="18" cy="18" r="24" class="djs-outline" style="fill: none;"/><title>EndVisitEvent</title></g></g><g class="djs-group"><g class="djs-element djs-shape" data-element-id="ArrivalGateway" style="display: block;" transform="matrix(1 0 0 1 975 233)"><g class="djs-visual"><polygon points="25,0 50,25 25,50 0,25" style="stroke-linecap: round; stroke-linejoin: round; stroke: rgb(34, 36, 42); stroke-width: 2px; fill: white; fill-opacity: 0.95;"/><path d="m 16,15 7.42857142857143,9.714285714285715 -7.42857142857143,9.714285714285715 3.428571428571429,0 5.714285714285715,-7.464228571428572 5.714285714285715,7.464228571428572 3.428571428571429,0 -7.42857142857143,-9.714285714285715 7.42857142857143,-9.714285714285715 -3.428571428571429,0 -5.714285714285715,7.464228571428572 -5.714285714285715,-7.464228571428572 -3.428571428571429,0 z" style="fill: rgb(34, 36, 42); stroke-linecap: round; stroke-linejoin: round; stroke: rgb(34, 36, 42); stroke-width: 1px;"/></g><rect class="djs-hit djs-hit-all" x="0" y="0" width="50" height="50" style="fill: none; stroke-opacity: 0; stroke: white; stroke-width: 15px;"/><rect x="2" y="2" rx="4" width="46" height="46" class="djs-outline" style="transform-box: fill-box; transform: rotate(45deg); transform-origin: center center; fill: none;"/><title>ArrivalGateway</title></g></g><g class="djs-group"><g class="djs-element djs-shape" data-element-id="OffDutyActivity" style="display: block;" transform="matrix(1 0 0 1 800 350)"><g class="djs-visual"><rect x="0" y="0" width="100" height="80" rx="10" ry="10" style="stroke-linecap: round; stroke-linejoin: round; stroke: rgb(34, 36, 42); stroke-width: 2px; fill: white; fill-opacity: 0.95;"/><text lineHeight="1.2" class="djs-label" style="font-family: Arial, sans-serif; font-size: 12px; font-weight: normal; fill: rgb(34, 36, 42);"><tspan x="14.09375" y="36.4">Take time off-</tspan><tspan x="38.65625" y="50.8">duty</tspan></text><rect x="0" y="0" width="14" height="14" rx="0" ry="0" style="stroke-linecap: round; stroke-linejoin: round; stroke: rgb(34, 36, 42); stroke-width: 1px; fill: white;" transform="matrix(1 0 0 1 42.5 60)"/><path data-marker="sub-process" d="m42.5,60 m 7,2 l 0,10 m -5,-5 l 10,0" style="fill: white; stroke-linecap: round; stroke-linejoin: round; stroke: rgb(34, 36, 42); stroke-width: 2px;"/></g><rect class="djs-hit djs-hit-all" x="0" y="0" width="100" height="80" style="fill: none; stroke-opacity: 0; stroke: white; stroke-width: 15px;"/><rect x="-5" y="-5" rx="14" width="110" height="90" class="djs-outline" style="fill: none;"/><title>OffDutyActivity</title></g></g><g class="djs-group"><g class="djs-element djs-shape" data-element-id="WaitActivity" style="display: block;" transform="matrix(1 0 0 1 1200 350)"><g class="djs-visual"><rect x="0" y="0" width="100" height="80" rx="10" ry="10" style="stroke-linecap: round; stroke-linejoin: round; stroke: rgb(34, 36, 42); stroke-width: 2px; fill: white; fill-opacity: 0.95;"/><text lineHeight="1.2" class="djs-label" style="font-family: Arial, sans-serif; font-size: 12px; font-weight: normal; fill: rgb(34, 36, 42);"><tspan x="37.8896484375" y="43.599999999999994">Wait</tspan></text><rect x="0" y="0" width="14" height="14" rx="0" ry="0" style="stroke-linecap: round; stroke-linejoin: round; stroke: rgb(34, 36, 42); stroke-width: 1px; fill: white;" transform="matrix(1 0 0 1 42.5 60)"/><path data-marker="sub-process" d="m42.5,60 m 7,2 l 0,10 m -5,-5 l 10,0" style="fill: white; stroke-linecap: round; stroke-linejoin: round; stroke: rgb(34, 36, 42); stroke-width: 2px;"/></g><rect class="djs-hit djs-hit-all" x="0" y="0" width="100" height="80" style="fill: none; stroke-opacity: 0; stroke: white; stroke-width: 15px;"/><rect x="-5" y="-5" rx="14" width="110" height="90" class="djs-outline" style="fill: none;"/><title>WaitActivity</title></g></g><g class="djs-group"><g class="djs-element djs-shape" data-element-id="WaitGateway" style="display: block;" transform="matrix(1 0 0 1 1095 233)"><g class="djs-visual"><polygon points="25,0 50,25 25,50 0,25" style="stroke-linecap: round; stroke-linejoin: round; stroke: rgb(34, 36, 42); stroke-width: 2px; fill: white; fill-opacity: 0.95;"/><path d="m 16,15 7.42857142857143,9.714285714285715 -7.42857142857143,9.714285714285715 3.428571428571429,0 5.714285714285715,-7.464228571428572 5.714285714285715,7.464228571428572 3.428571428571429,0 -7.42857142857143,-9.714285714285715 7.42857142857143,-9.714285714285715 -3.428571428571429,0 -5.714285714285715,7.464228571428572 -5.714285714285715,-7.464228571428572 -3.428571428571429,0 z" style="fill: rgb(34, 36, 42); stroke-linecap: round; stroke-linejoin: round; stroke: rgb(34, 36, 42); stroke-width: 1px;"/></g><rect class="djs-hit djs-hit-all" x="0" y="0" width="50" height="50" style="fill: none; stroke-opacity: 0; stroke: white; stroke-width: 15px;"/><rect x="2" y="2" rx="4" width="46" height="46" class="djs-outline" style="transform-box: fill-box; transform: rotate(45deg); transform-origin: center center; fill: none;"/><title>WaitGateway</title></g></g><g class="djs-group"><g class="djs-element djs-shape" data-element-id="MergeGateway_3" style="display: block;" transform="matrix(1 0 0 1 1355 233)"><g class="djs-visual"><polygon points="25,0 50,25 25,50 0,25" style="stroke-linecap: round; stroke-linejoin: round; stroke: rgb(34, 36, 42); stroke-width: 2px; fill: white; fill-opacity: 0.95;"/><path d="m 16,15 7.42857142857143,9.714285714285715 -7.42857142857143,9.714285714285715 3.428571428571429,0 5.714285714285715,-7.464228571428572 5.714285714285715,7.464228571428572 3.428571428571429,0 -7.42857142857143,-9.714285714285715 7.42857142857143,-9.714285714285715 -3.428571428571429,0 -5.714285714285715,7.464228571428572 -5.714285714285715,-7.464228571428572 -3.428571428571429,0 z" style="fill: rgb(34, 36, 42); stroke-linecap: round; stroke-linejoin: round; stroke: rgb(34, 36, 42); stroke-width: 1px;"/></g><rect class="djs-hit djs-hit-all" x="0" y="0" width="50" height="50" style="fill: none; stroke-opacity: 0; stroke: white; stroke-width: 15px;"/><rect x="2" y="2" rx="4" width="46" height="46" class="djs-outline" style="transform-box: fill-box; transform: rotate(45deg); transform-origin: center center; fill: none;"/><title>MergeGateway_3</title></g></g><g class="djs-group"><g class="djs-element djs-connection" data-element-id="Flow_1xc53ns" style="display: block;"><g class="djs-visual"><path data-corner-radius="5" style="fill: none; stroke-linecap: round; stroke-linejoin: round; stroke: rgb(34, 36, 42); stroke-width: 2px; marker-end: url('#sequenceflow-end-white-hsl_225_10_15_-b8gmzezzx3ks1kmxkmaojdy6x');" d="M621,258L685,258"/></g><path d="M621,258L685,258" class="djs-hit djs-hit-stroke" style="fill: none; stroke-opacity: 0; stroke: white; stroke-width: 15px;"/><rect x="616" y="253" rx="4" width="74" height="10" class="djs-outline" style="fill: none;"/><title>Flow_1xc53ns</title></g></g><g class="djs-group"><g class="djs-element djs-connection" data-element-id="Flow_18dfia6" style="display: block;"><g class="djs-visual"><path data-corner-radius="5" style="fill: none; stroke-linecap: round; stroke-linejoin: round; stroke: rgb(34, 36, 42); stroke-width: 2px; marker-end: url('#sequenceflow-end-white-hsl_225_10_15_-b8gmzezzx3ks1kmxkmaojdy6x');" d="M735,258L800,258"/></g><path d="M735,258L800,258" class="djs-hit djs-hit-stroke" style="fill: none; stroke-opacity: 0; stroke: white; stroke-width: 15px;"/><rect x="730" y="253" rx="4" width="75" height="10" class="djs-outline" style="fill: none;"/><title>Flow_18dfia6</title></g></g><g class="djs-group"><g class="djs-element djs-connection" data-element-id="Flow_1cfqccg" style="display: block;"><g class="djs-visual"><path data-corner-radius="5" style="fill: none; stroke-linecap: round; stroke-linejoin: round; stroke: rgb(34, 36, 42); stroke-width: 2px; marker-end: url('#sequenceflow-end-white-hsl_225_10_15_-b8gmzezzx3ks1kmxkmaojdy6x');" d="M900,258L975,258"/></g><path d="M900,258L975,258" class="djs-hit djs-hit-stroke" style="fill: none; stroke-opacity: 0; stroke: white; stroke-width: 15px;"/><rect x="895" y="253" rx="4" width="85" height="10" class="djs-outline" style="fill: none;"/><title>Flow_1cfqccg</title></g></g><g class="djs-group"><g class="djs-element djs-connection" data-element-id="Flow_1ikx5a9" style="display: block;"><g class="djs-visual"><path data-corner-radius="5" style="fill: none; stroke-linecap: round; stroke-linejoin: round; stroke: rgb(34, 36, 42); stroke-width: 2px; marker-end: url('#sequenceflow-end-white-hsl_225_10_15_-b8gmzezzx3ks1kmxkmaojdy6x');" d="M1570,258L1632,258"/></g><path d="M1570,258L1632,258" class="djs-hit djs-hit-stroke" style="fill: none; stroke-opacity: 0; stroke: white; stroke-width: 15px;"/><rect x="1565" y="253" rx="4" width="72" height="10" class="djs-outline" style="fill: none;"/><title>Flow_1ikx5a9</title></g></g><g class="djs-group"><g class="djs-element djs-connection" data-element-id="Flow_1uszjtx" style="display: block;"><g class="djs-visual"><path data-corner-radius="5" style="fill: none; stroke-linecap: round; stroke-linejoin: round; stroke: rgb(34, 36, 42); stroke-width: 2px; marker-end: url('#sequenceflow-end-white-hsl_225_10_15_-b8gmzezzx3ks1kmxkmaojdy6x');" d="M1025,258L1095,258"/></g><path d="M1025,258L1095,258" class="djs-hit djs-hit-stroke" style="fill: none; stroke-opacity: 0; stroke: white; stroke-width: 15px;"/><rect x="1020" y="253" rx="4" width="80" height="10" class="djs-outline" style="fill: none;"/><title>Flow_1uszjtx</title></g></g><g class="djs-group"><g class="djs-element djs-shape" data-element-id="Flow_1uszjtx_label" style="display: block;" transform="matrix(1 0 0 1 1035 240)"><g class="djs-visual"><text lineHeight="1.2" class="djs-label" style="font-family: Arial, sans-serif; font-size: 11px; font-weight: normal; fill: rgb(34, 36, 42);"><tspan x="0" y="9.899999999999999">arrived</tspan></text></g><rect class="djs-hit djs-hit-all" x="0" y="0" width="34" height="14" style="fill: none; stroke-opacity: 0; stroke: white; stroke-width: 15px;"/><rect x="-5" y="-5" rx="4" width="44" height="24" class="djs-outline" style="fill: none;"/><title>Flow_1uszjtx_label</title></g></g><g class="djs-group"><g class="djs-element djs-connection" data-element-id="Flow_0s8gidz" style="display: block;"><g class="djs-visual"><path data-corner-radius="5" style="fill: none; stroke-linecap: round; stroke-linejoin: round; stroke: rgb(34, 36, 42); stroke-width: 2px; marker-end: url('#sequenceflow-end-white-hsl_225_10_15_-b8gmzezzx3ks1kmxkmaojdy6x');" d="M1000,283L1000,385C1000,387.5,997.5,390,995,390L900,390"/></g><path d="M1000,283L1000,390L900,390" class="djs-hit djs-hit-stroke" style="fill: none; stroke-opacity: 0; stroke: white; stroke-width: 15px;"/><rect x="895" y="278" rx="4" width="110" height="117" class="djs-outline" style="fill: none;"/><title>Flow_0s8gidz</title></g></g><g class="djs-group"><g class="djs-element djs-shape" data-element-id="Flow_0s8gidz_label" style="display: block;" transform="matrix(1 0 0 1 1005 298)"><g class="djs-visual"><text lineHeight="1.2" class="djs-label" style="font-family: Arial, sans-serif; font-size: 11px; font-weight: normal; fill: rgb(34, 36, 42);"><tspan x="0" y="9.899999999999999">not yet arrived</tspan></text></g><rect class="djs-hit djs-hit-all" x="0" y="0" width="70" height="14" style="fill: none; stroke-opacity: 0; stroke: white; stroke-width: 15px;"/><rect x="-5" y="-5" rx="4" width="80" height="24" class="djs-outline" style="fill: none;"/><title>Flow_0s8gidz_label</title></g></g><g class="djs-group"><g class="djs-element djs-connection" data-element-id="Flow_0yh2gsq" style="display: block;"><g class="djs-visual"><path data-corner-radius="5" style="fill: none; stroke-linecap: round; stroke-linejoin: round; stroke: rgb(34, 36, 42); stroke-width: 2px; marker-end: url('#sequenceflow-end-white-hsl_225_10_15_-b8gmzezzx3ks1kmxkmaojdy6x');" d="M800,390L715,390C712.5,390,710,387.5,710,385L710,283"/></g><path d="M800,390L710,390L710,283" class="djs-hit djs-hit-stroke" style="fill: none; stroke-opacity: 0; stroke: white; stroke-width: 15px;"/><rect x="705" y="278" rx="4" width="100" height="117" class="djs-outline" style="fill: none;"/><title>Flow_0yh2gsq</title></g></g><g class="djs-group"><g class="djs-element djs-connection" data-element-id="Flow_005n7t7" style="display: block;"><g class="djs-visual"><path data-corner-radius="5" style="fill: none; stroke-linecap: round; stroke-linejoin: round; stroke: rgb(34, 36, 42); stroke-width: 2px; marker-end: url('#sequenceflow-end-white-hsl_225_10_15_-b8gmzezzx3ks1kmxkmaojdy6x');" d="M1300,390L1375,390C1377.5,390,1380,387.5,1380,385L1380,283"/></g><path d="M1300,390L1380,390L1380,283" class="djs-hit djs-hit-stroke" style="fill: none; stroke-opacity: 0; stroke: white; stroke-width: 15px;"/><rect x="1295" y="278" rx="4" width="90" height="117" class="djs-outline" style="fill: none;"/><title>Flow_005n7t7</title></g></g><g class="djs-group"><g class="djs-element djs-connection" data-element-id="Flow_12gilga" style="display: block;"><g class="djs-visual"><path data-corner-radius="5" style="fill: none; stroke-linecap: round; stroke-linejoin: round; stroke: rgb(34, 36, 42); stroke-width: 2px; marker-end: url('#sequenceflow-end-white-hsl_225_10_15_-b8gmzezzx3ks1kmxkmaojdy6x');" d="M1120,283L1120,385C1120,387.5,1122.5,390,1125,390L1200,390"/></g><path d="M1120,283L1120,390L1200,390" class="djs-hit djs-hit-stroke" style="fill: none; stroke-opacity: 0; stroke: white; stroke-width: 15px;"/><rect x="1115" y="278" rx="4" width="90" height="117" class="djs-outline" style="fill: none;"/><title>Flow_12gilga</title></g></g><g class="djs-group"><g class="djs-element djs-shape" data-element-id="Flow_12gilga_label" style="display: block;" transform="matrix(1 0 0 1 1128 298)"><g class="djs-visual"><text lineHeight="1.2" class="djs-label" style="font-family: Arial, sans-serif; font-size: 11px; font-weight: normal; fill: rgb(34, 36, 42);"><tspan x="0" y="9.899999999999999">too early</tspan></text></g><rect class="djs-hit djs-hit-all" x="0" y="0" width="43" height="14" style="fill: none; stroke-opacity: 0; stroke: white; stroke-width: 15px;"/><rect x="-5" y="-5" rx="4" width="53" height="24" class="djs-outline" style="fill: none;"/><title>Flow_12gilga_label</title></g></g><g class="djs-group"><g class="djs-element djs-connection" data-element-id="Flow_123bll6" style="display: block;"><g class="djs-visual"><path data-corner-radius="5" style="fill: none; stroke-linecap: round; stroke-linejoin: round; stroke: rgb(34, 36, 42); stroke-width: 2px; marker-end: url('#sequenceflow-end-white-hsl_225_10_15_-b8gmzezzx3ks1kmxkmaojdy6x');" d="M1405,258L1470,258"/></g><path d="M1405,258L1470,258" class="djs-hit djs-hit-stroke" style="fill: none; stroke-opacity: 0; stroke: white; stroke-width: 15px;"/><rect x="1400" y="253" rx="4" width="75" height="10" class="djs-outline" style="fill: none;"/><title>Flow_123bll6</title></g></g><g class="djs-group"><g class="djs-element djs-connection" data-element-id="Flow_14ovnm9" style="display: block;"><g class="djs-visual"><path data-corner-radius="5" style="fill: none; stroke-linecap: round; stroke-linejoin: round; stroke: rgb(34, 36, 42); stroke-width: 2px; marker-end: url('#sequenceflow-end-white-hsl_225_10_15_-b8gmzezzx3ks1kmxkmaojdy6x');" d="M1145,258L1355,258"/></g><path d="M1145,258L1355,258" class="djs-hit djs-hit-stroke" style="fill: none; stroke-opacity: 0; stroke: white; stroke-width: 15px;"/><rect x="1140" y="253" rx="4" width="220" height="10" class="djs-outline" style="fill: none;"/><title>Flow_14ovnm9</title></g></g><g class="djs-group"><g class="djs-element djs-shape" data-element-id="Flow_14ovnm9_label" style="display: block;" transform="matrix(1 0 0 1 1153 240)"><g class="djs-visual"><text lineHeight="1.2" class="djs-label" style="font-family: Arial, sans-serif; font-size: 11px; font-weight: normal; fill: rgb(34, 36, 42);"><tspan x="0" y="9.899999999999999">not too early</tspan></text></g><rect class="djs-hit djs-hit-all" x="0" y="0" width="62" height="14" style="fill: none; stroke-opacity: 0; stroke: white; stroke-width: 15px;"/><rect x="-5" y="-5" rx="4" width="72" height="24" class="djs-outline" style="fill: none;"/><title>Flow_14ovnm9_label</title></g></g></g></g><g class="djs-group"><g class="djs-element djs-shape" data-element-id="EndProcessEvent" style="display: block;" transform="matrix(1 0 0 1 1772 312)"><g class="djs-visual"><circle cx="18" cy="18" r="18" style="stroke-linecap: round; stroke-linejoin: round; stroke: rgb(34, 36, 42); stroke-width: 4px; fill: white; fill-opacity: 0.95;"/></g><rect class="djs-hit djs-hit-all" x="0" y="0" width="36" height="36" style="fill: none; stroke-opacity: 0; stroke: white; stroke-width: 15px;"/><circle cx="18" cy="18" r="24" class="djs-outline" style="fill: none;"/><title>EndProcessEvent</title></g></g><g class="djs-group"><g class="djs-element djs-shape" data-element-id="DataObjectReference_15y3y37" style="display: block;" transform="matrix(1 0 0 1 442 205)"><g class="djs-visual"><path d="m 0,0 28.23529411764706,0 7.058823529411765,8.196721311475411 0,40.98360655737705 -35.294117647058826,0 0,-49.18032786885246 28.23529411764706,0 0,8.196721311475411 7.058823529411765,0" style="fill: white; stroke-linecap: round; stroke-linejoin: round; stroke: rgb(34, 36, 42); stroke-width: 2px; fill-opacity: 0.95;"/></g><rect class="djs-hit djs-hit-all" x="0" y="0" width="36" height="50" style="fill: none; stroke-opacity: 0; stroke: white; stroke-width: 15px;"/><path d="M44.7648 11.3263L36.9892 2.64074C36.0451 1.58628 34.5651 0.988708 33.1904 0.988708H5.98667C3.22688 0.988708 0.989624 3.34892 0.989624 6.26039V55.0235C0.989624 57.9349 3.22688 60.2952 5.98667 60.2952H40.966C43.7257 60.2952 45.963 57.9349 45.963 55.0235V14.9459C45.963 13.5998 45.6407 12.3048 44.7648 11.3263Z" transform="translate(-6, -6)" class="djs-outline" style="stroke-width: 2px; fill: none;"/><title>DataObjectReference_15y3y37</title></g></g><g class="djs-group"><g class="djs-element djs-connection" data-element-id="Flow_057ix6m" style="display: block;"><g class="djs-visual"><path data-corner-radius="5" style="fill: none; stroke-linecap: round; stroke-linejoin: round; stroke: rgb(34, 36, 42); stroke-width: 2px; marker-end: url('#sequenceflow-end-white-hsl_225_10_15_-b8gmzezzx3ks1kmxkmaojdy6x');" d="M478,330L545,330"/></g><path d="M478,330L545,330" class="djs-hit djs-hit-stroke" style="fill: none; stroke-opacity: 0; stroke: white; stroke-width: 15px;"/><rect x="473" y="325" rx="4" width="77" height="10" class="djs-outline" style="fill: none;"/><title>Flow_057ix6m</title></g></g><g class="djs-group"><g class="djs-element djs-connection" data-element-id="Flow_1xxyckx" style="display: block;"><g class="djs-visual"><path data-corner-radius="5" style="fill: none; stroke-linecap: round; stroke-linejoin: round; stroke: rgb(34, 36, 42); stroke-width: 2px; marker-end: url('#sequenceflow-end-white-hsl_225_10_15_-b8gmzezzx3ks1kmxkmaojdy6x');" d="M1700,330L1772,330"/></g><path d="M1700,330L1772,330" class="djs-hit djs-hit-stroke" style="fill: none; stroke-opacity: 0; stroke: white; stroke-width: 15px;"/><rect x="1695" y="325" rx="4" width="82" height="10" class="djs-outline" style="fill: none;"/><title>Flow_1xxyckx</title></g></g></svg>