<?xml version="1.0" encoding="utf-8"?>
<!-- created with bpmn-js / http://bpmn.io -->
<!DOCTYPE svg PUBLIC "-//W3C//DTD SVG 1.1//EN" "http://www.w3.org/Graphics/SVG/1.1/DTD/svg11.dtd">
<svg xmlns="http://www.w3.org/2000/svg" xmlns:xlink="http://www.w3.org/1999/xlink" width="709" height="240" viewBox="175 145 709 240" version="1.1"><defs><marker id="sequenceflow-end-white-hsl_225_10_15_-b8gmzezzx3ks1kmxkmaojdy6x" viewBox="0 0 20 20" refX="11" refY="10" markerWidth="10" markerHeight="10" orient="auto"><path d="M 1 5 L 11 10 L 1 15 Z" style="stroke-linecap: round; stroke-linejoin: round; stroke: rgb(34, 36, 42); stroke-width: 1px; fill: rgb(34, 36, 42);"/></marker></defs><g class="djs-group"><g class="djs-element djs-shape" data-element-id="Event_1y6nvhh" style="display: block;" transform="matrix(1 0 0 1 180 242)"><g class="djs-visual"><circle cx="18" cy="18" r="18" style="stroke-linecap: round; stroke-linejoin: round; stroke: rgb(34, 36, 42); stroke-width: 2px; fill: white; fill-opacity: 0.95;"/></g><rect class="djs-hit djs-hit-all" x="0" y="0" width="36" height="36" style="fill: none; stroke-opacity: 0; stroke: white; stroke-width: 15px;"/><circle cx="18" cy="18" r="23" class="djs-outline" style="fill: none;"/><title>Event_1y6nvhh</title></g></g><g class="djs-group"><g class="djs-element djs-shape" data-element-id="DecideDuringTripTask" style="display: block;" transform="matrix(1 0 0 1 270 220)"><g class="djs-visual"><rect x="0" y="0" width="100" height="80" rx="10" ry="10" style="stroke-linecap: round; stroke-linejoin: round; stroke: rgb(34, 36, 42); stroke-width: 2px; fill: white; fill-opacity: 0.95;"/><text lineHeight="1.2" class="djs-label" style="font-family: Arial, sans-serif; font-size: 12px; font-weight: normal; fill: rgb(34, 36, 42);"><tspan x="19.421875" y="36.4">Set off-duty </tspan><tspan x="38.49609375" y="50.8">type</tspan></text><path d="m 12.3765 9.8338 c 0.4627 -1.0288 0.7177 -1.5952 2.2439 -1.5952 h 0.9873 v 2.2002 l 3.2183 -3.2198 l -3.2183 -3.219 v 2.2001 h -0.9873 c -2.844 0 -3.6014 1.6833 -4.1028 2.7972 c -0.4247 0.9438 -0.6395 1.4209 -1.7567 1.4835 h -3.5866 l 3.6643 0.0012 c 1.2193 0.0612 1.9879 0.4795 2.5146 1.0179 c 0.503 -0.5141 0.7853 -1.1373 1.0233 -1.6661 z m 6.4493 5.9467 l -3.2183 -3.219 v 2.2001 h -0.9873 c -1.526 0 -1.781 -0.5667 -2.2439 -1.5952 c -0.2378 -0.5286 -0.5203 -1.152 -1.0233 -1.6662 c -0.5267 -0.5383 -1.2953 -0.9568 -2.5146 -1.0179 l -3.6643 -0.0014 v 2.0383 h 3.5866 c 1.1175 0.0625 1.3321 0.5397 1.7567 1.4835 c 0.5011 1.1139 1.2586 2.7972 4.1028 2.7972 h 0.9873 v 2.2002 z" style="stroke: black; stroke-width: 0.5; fill: black;"/></g><rect class="djs-hit djs-hit-all" x="0" y="0" width="100" height="80" style="fill: none; stroke-opacity: 0; stroke: white; stroke-width: 15px;"/><rect x="-5" y="-5" rx="14" width="110" height="90" class="djs-outline" style="fill: none;"/><title>DecideDuringTripTask</title></g></g><g class="djs-group"><g class="djs-element djs-shape" data-element-id="Gateway_05gao8w" style="display: block;" transform="matrix(1 0 0 1 425 235)"><g class="djs-visual"><polygon points="25,0 50,25 25,50 0,25" style="stroke-linecap: round; stroke-linejoin: round; stroke: rgb(34, 36, 42); stroke-width: 2px; fill: white; fill-opacity: 0.95;"/><path d="m 16,15 7.42857142857143,9.714285714285715 -7.42857142857143,9.714285714285715 3.428571428571429,0 5.714285714285715,-7.464228571428572 5.714285714285715,7.464228571428572 3.428571428571429,0 -7.42857142857143,-9.714285714285715 7.42857142857143,-9.714285714285715 -3.428571428571429,0 -5.714285714285715,7.464228571428572 -5.714285714285715,-7.464228571428572 -3.428571428571429,0 z" style="fill: rgb(34, 36, 42); stroke-linecap: round; stroke-linejoin: round; stroke: rgb(34, 36, 42); stroke-width: 1px;"/></g><rect class="djs-hit djs-hit-all" x="0" y="0" width="50" height="50" style="fill: none; stroke-opacity: 0; stroke: white; stroke-width: 15px;"/><rect x="2" y="2" rx="4" width="46" height="46" class="djs-outline" style="transform-box: fill-box; transform: rotate(45deg); transform-origin: center center; fill: none;"/><title>Gateway_05gao8w</title></g></g><g class="djs-group"><g class="djs-element djs-shape" data-element-id="BreakDuringTripTask" style="display: block;" transform="matrix(1 0 0 1 680 150)"><g class="djs-visual"><rect x="0" y="0" width="100" height="80" rx="10" ry="10" style="stroke-linecap: round; stroke-linejoin: round; stroke: rgb(34, 36, 42); stroke-width: 2px; fill: white; fill-opacity: 0.95;"/><text lineHeight="1.2" class="djs-label" style="font-family: Arial, sans-serif; font-size: 12px; font-weight: normal; fill: rgb(34, 36, 42);"><tspan x="33.826171875" y="43.599999999999994">Break</tspan></text></g><rect class="djs-hit djs-hit-all" x="0" y="0" width="100" height="80" style="fill: none; stroke-opacity: 0; stroke: white; stroke-width: 15px;"/><rect x="-5" y="-5" rx="14" width="110" height="90" class="djs-outline" style="fill: none;"/><title>BreakDuringTripTask</title></g></g><g class="djs-group"><g class="djs-element djs-shape" data-element-id="RestDuringTripTask" style="display: block;" transform="matrix(1 0 0 1 680 300)"><g class="djs-visual"><rect x="0" y="0" width="100" height="80" rx="10" ry="10" style="stroke-linecap: round; stroke-linejoin: round; stroke: rgb(34, 36, 42); stroke-width: 2px; fill: white; fill-opacity: 0.95;"/><text lineHeight="1.2" class="djs-label" style="font-family: Arial, sans-serif; font-size: 12px; font-weight: normal; fill: rgb(34, 36, 42);"><tspan x="37.330078125" y="43.599999999999994">Rest</tspan></text></g><rect class="djs-hit djs-hit-all" x="0" y="0" width="100" height="80" style="fill: none; stroke-opacity: 0; stroke: white; stroke-width: 15px;"/><rect x="-5" y="-5" rx="14" width="110" height="90" class="djs-outline" style="fill: none;"/><title>RestDuringTripTask</title></g></g><g class="djs-group"><g class="djs-element djs-shape" data-element-id="Event_0k280c1" style="display: block;" transform="matrix(1 0 0 1 842 172)"><g class="djs-visual"><circle cx="18" cy="18" r="18" style="stroke-linecap: round; stroke-linejoin: round; stroke: rgb(34, 36, 42); stroke-width: 4px; fill: white; fill-opacity: 0.95;"/></g><rect class="djs-hit djs-hit-all" x="0" y="0" width="36" height="36" style="fill: none; stroke-opacity: 0; stroke: white; stroke-width: 15px;"/><circle cx="18" cy="18" r="24" class="djs-outline" style="fill: none;"/><title>Event_0k280c1</title></g></g><g class="djs-group"><g class="djs-element djs-shape" data-element-id="Event_0ycb46t" style="display: block;" transform="matrix(1 0 0 1 842 322)"><g class="djs-visual"><circle cx="18" cy="18" r="18" style="stroke-linecap: round; stroke-linejoin: round; stroke: rgb(34, 36, 42); stroke-width: 4px; fill: white; fill-opacity: 0.95;"/></g><rect class="djs-hit djs-hit-all" x="0" y="0" width="36" height="36" style="fill: none; stroke-opacity: 0; stroke: white; stroke-width: 15px;"/><circle cx="18" cy="18" r="24" class="djs-outline" style="fill: none;"/><title>Event_0ycb46t</title></g></g><g class="djs-group"><g class="djs-element djs-shape" data-element-id="Activity_0r4ynpt" style="display: block;" transform="matrix(1 0 0 1 520 150)"><g class="djs-visual"><rect x="0" y="0" width="100" height="80" rx="10" ry="10" style="stroke-linecap: round; stroke-linejoin: round; stroke: rgb(34, 36, 42); stroke-width: 2px; fill: white; fill-opacity: 0.95;"/><text lineHeight="1.2" class="djs-label" style="font-family: Arial, sans-serif; font-size: 12px; font-weight: normal; fill: rgb(34, 36, 42);"><tspan x="17.640625" y="43.599999999999994">Set duration</tspan></text><path d="m 12.3765 9.8338 c 0.4627 -1.0288 0.7177 -1.5952 2.2439 -1.5952 h 0.9873 v 2.2002 l 3.2183 -3.2198 l -3.2183 -3.219 v 2.2001 h -0.9873 c -2.844 0 -3.6014 1.6833 -4.1028 2.7972 c -0.4247 0.9438 -0.6395 1.4209 -1.7567 1.4835 h -3.5866 l 3.6643 0.0012 c 1.2193 0.0612 1.9879 0.4795 2.5146 1.0179 c 0.503 -0.5141 0.7853 -1.1373 1.0233 -1.6661 z m 6.4493 5.9467 l -3.2183 -3.219 v 2.2001 h -0.9873 c -1.526 0 -1.781 -0.5667 -2.2439 -1.5952 c -0.2378 -0.5286 -0.5203 -1.152 -1.0233 -1.6662 c -0.5267 -0.5383 -1.2953 -0.9568 -2.5146 -1.0179 l -3.6643 -0.0014 v 2.0383 h 3.5866 c 1.1175 0.0625 1.3321 0.5397 1.7567 1.4835 c 0.5011 1.1139 1.2586 2.7972 4.1028 2.7972 h 0.9873 v 2.2002 z" style="stroke: black; stroke-width: 0.5; fill: black;"/></g><rect class="djs-hit djs-hit-all" x="0" y="0" width="100" height="80" style="fill: none; stroke-opacity: 0; stroke: white; stroke-width: 15px;"/><rect x="-5" y="-5" rx="14" width="110" height="90" class="djs-outline" style="fill: none;"/><title>Activity_0r4ynpt</title></g></g><g class="djs-group"><g class="djs-element djs-shape" data-element-id="Activity_1yum9rm" style="display: block;" transform="matrix(1 0 0 1 520 300)"><g class="djs-visual"><rect x="0" y="0" width="100" height="80" rx="10" ry="10" style="stroke-linecap: round; stroke-linejoin: round; stroke: rgb(34, 36, 42); stroke-width: 2px; fill: white; fill-opacity: 0.95;"/><text lineHeight="1.2" class="djs-label" style="font-family: Arial, sans-serif; font-size: 12px; font-weight: normal; fill: rgb(34, 36, 42);"><tspan x="17.640625" y="43.599999999999994">Set duration</tspan></text><path d="m 12.3765 9.8338 c 0.4627 -1.0288 0.7177 -1.5952 2.2439 -1.5952 h 0.9873 v 2.2002 l 3.2183 -3.2198 l -3.2183 -3.219 v 2.2001 h -0.9873 c -2.844 0 -3.6014 1.6833 -4.1028 2.7972 c -0.4247 0.9438 -0.6395 1.4209 -1.7567 1.4835 h -3.5866 l 3.6643 0.0012 c 1.2193 0.0612 1.9879 0.4795 2.5146 1.0179 c 0.503 -0.5141 0.7853 -1.1373 1.0233 -1.6661 z m 6.4493 5.9467 l -3.2183 -3.219 v 2.2001 h -0.9873 c -1.526 0 -1.781 -0.5667 -2.2439 -1.5952 c -0.2378 -0.5286 -0.5203 -1.152 -1.0233 -1.6662 c -0.5267 -0.5383 -1.2953 -0.9568 -2.5146 -1.0179 l -3.6643 -0.0014 v 2.0383 h 3.5866 c 1.1175 0.0625 1.3321 0.5397 1.7567 1.4835 c 0.5011 1.1139 1.2586 2.7972 4.1028 2.7972 h 0.9873 v 2.2002 z" style="stroke: black; stroke-width: 0.5; fill: black;"/></g><rect class="djs-hit djs-hit-all" x="0" y="0" width="100" height="80" style="fill: none; stroke-opacity: 0; stroke: white; stroke-width: 15px;"/><rect x="-5" y="-5" rx="14" width="110" height="90" class="djs-outline" style="fill: none;"/><title>Activity_1yum9rm</title></g></g><g class="djs-group"><g class="djs-element djs-connection" data-element-id="Flow_0qy8mqg" style="display: block;"><g class="djs-visual"><path data-corner-radius="5" style="fill: none; stroke-linecap: round; stroke-linejoin: round; stroke: rgb(34, 36, 42); stroke-width: 2px; marker-end: url('#sequenceflow-end-white-hsl_225_10_15_-b8gmzezzx3ks1kmxkmaojdy6x');" d="M370,260L425,260"/></g><path d="M370,260L425,260" class="djs-hit djs-hit-stroke" style="fill: none; stroke-opacity: 0; stroke: white; stroke-width: 15px;"/><rect x="365" y="255" rx="4" width="65" height="10" class="djs-outline" style="fill: none;"/><title>Flow_0qy8mqg</title></g></g><g class="djs-group"><g class="djs-element djs-connection" data-element-id="Flow_00x8mrp" style="display: block;"><g class="djs-visual"><path data-corner-radius="5" style="fill: none; stroke-linecap: round; stroke-linejoin: round; stroke: rgb(34, 36, 42); stroke-width: 2px; marker-end: url('#sequenceflow-end-white-hsl_225_10_15_-b8gmzezzx3ks1kmxkmaojdy6x');" d="M450,235L450,195C450,192.5,452.5,190,455,190L520,190"/></g><path d="M450,235L450,190L520,190" class="djs-hit djs-hit-stroke" style="fill: none; stroke-opacity: 0; stroke: white; stroke-width: 15px;"/><rect x="445" y="185" rx="4" width="80" height="55" class="djs-outline" style="fill: none;"/><title>Flow_00x8mrp</title></g></g><g class="djs-group"><g class="djs-element djs-shape" data-element-id="Flow_00x8mrp_label" style="display: block;" transform="matrix(1 0 0 1 456 213)"><g class="djs-visual"><text lineHeight="1.2" class="djs-label" style="font-family: Arial, sans-serif; font-size: 11px; font-weight: normal; fill: rgb(34, 36, 42);"><tspan x="0" y="9.899999999999999">break</tspan></text></g><rect class="djs-hit djs-hit-all" x="0" y="0" width="29" height="14" style="fill: none; stroke-opacity: 0; stroke: white; stroke-width: 15px;"/><rect x="-5" y="-5" rx="4" width="39" height="24" class="djs-outline" style="fill: none;"/><title>Flow_00x8mrp_label</title></g></g><g class="djs-group"><g class="djs-element djs-connection" data-element-id="Flow_16bmg1w" style="display: block;"><g class="djs-visual"><path data-corner-radius="5" style="fill: none; stroke-linecap: round; stroke-linejoin: round; stroke: rgb(34, 36, 42); stroke-width: 2px; marker-end: url('#sequenceflow-end-white-hsl_225_10_15_-b8gmzezzx3ks1kmxkmaojdy6x');" d="M450,285L450,335C450,337.5,452.5,340,455,340L520,340"/></g><path d="M450,285L450,340L520,340" class="djs-hit djs-hit-stroke" style="fill: none; stroke-opacity: 0; stroke: white; stroke-width: 15px;"/><rect x="445" y="280" rx="4" width="80" height="65" class="djs-outline" style="fill: none;"/><title>Flow_16bmg1w</title></g></g><g class="djs-group"><g class="djs-element djs-shape" data-element-id="Flow_16bmg1w_label" style="display: block;" transform="matrix(1 0 0 1 460 293)"><g class="djs-visual"><text lineHeight="1.2" class="djs-label" style="font-family: Arial, sans-serif; font-size: 11px; font-weight: normal; fill: rgb(34, 36, 42);"><tspan x="0" y="9.899999999999999">rest</tspan></text></g><rect class="djs-hit djs-hit-all" x="0" y="0" width="19" height="14" style="fill: none; stroke-opacity: 0; stroke: white; stroke-width: 15px;"/><rect x="-5" y="-5" rx="4" width="29" height="24" class="djs-outline" style="fill: none;"/><title>Flow_16bmg1w_label</title></g></g><g class="djs-group"><g class="djs-element djs-connection" data-element-id="Flow_14mo7ex" style="display: block;"><g class="djs-visual"><path data-corner-radius="5" style="fill: none; stroke-linecap: round; stroke-linejoin: round; stroke: rgb(34, 36, 42); stroke-width: 2px; marker-end: url('#sequenceflow-end-white-hsl_225_10_15_-b8gmzezzx3ks1kmxkmaojdy6x');" d="M216,260L270,260"/></g><path d="M216,260L270,260" class="djs-hit djs-hit-stroke" style="fill: none; stroke-opacity: 0; stroke: white; stroke-width: 15px;"/><rect x="211" y="255" rx="4" width="64" height="10" class="djs-outline" style="fill: none;"/><title>Flow_14mo7ex</title></g></g><g class="djs-group"><g class="djs-element djs-connection" data-element-id="Flow_0op32u0" style="display: block;"><g class="djs-visual"><path data-corner-radius="5" style="fill: none; stroke-linecap: round; stroke-linejoin: round; stroke: rgb(34, 36, 42); stroke-width: 2px; marker-end: url('#sequenceflow-end-white-hsl_225_10_15_-b8gmzezzx3ks1kmxkmaojdy6x');" d="M780,190L842,190"/></g><path d="M780,190L842,190" class="djs-hit djs-hit-stroke" style="fill: none; stroke-opacity: 0; stroke: white; stroke-width: 15px;"/><rect x="775" y="185" rx="4" width="72" height="10" class="djs-outline" style="fill: none;"/><title>Flow_0op32u0</title></g></g><g class="djs-group"><g class="djs-element djs-connection" data-element-id="Flow_0d7pjw7" style="display: block;"><g class="djs-visual"><path data-corner-radius="5" style="fill: none; stroke-linecap: round; stroke-linejoin: round; stroke: rgb(34, 36, 42); stroke-width: 2px; marker-end: url('#sequenceflow-end-white-hsl_225_10_15_-b8gmzezzx3ks1kmxkmaojdy6x');" d="M780,340L842,340"/></g><path d="M780,340L842,340" class="djs-hit djs-hit-stroke" style="fill: none; stroke-opacity: 0; stroke: white; stroke-width: 15px;"/><rect x="775" y="335" rx="4" width="72" height="10" class="djs-outline" style="fill: none;"/><title>Flow_0d7pjw7</title></g></g><g class="djs-group"><g class="djs-element djs-connection" data-element-id="Flow_1qcj8ka" style="display: block;"><g class="djs-visual"><path data-corner-radius="5" style="fill: none; stroke-linecap: round; stroke-linejoin: round; stroke: rgb(34, 36, 42); stroke-width: 2px; marker-end: url('#sequenceflow-end-white-hsl_225_10_15_-b8gmzezzx3ks1kmxkmaojdy6x');" d="M620,190L680,190"/></g><path d="M620,190L680,190" class="djs-hit djs-hit-stroke" style="fill: none; stroke-opacity: 0; stroke: white; stroke-width: 15px;"/><rect x="615" y="185" rx="4" width="70" height="10" class="djs-outline" style="fill: none;"/><title>Flow_1qcj8ka</title></g></g><g class="djs-group"><g class="djs-element djs-connection" data-element-id="Flow_0w0twv0" style="display: block;"><g class="djs-visual"><path data-corner-radius="5" style="fill: none; stroke-linecap: round; stroke-linejoin: round; stroke: rgb(34, 36, 42); stroke-width: 2px; marker-end: url('#sequenceflow-end-white-hsl_225_10_15_-b8gmzezzx3ks1kmxkmaojdy6x');" d="M620,340L680,340"/></g><path d="M620,340L680,340" class="djs-hit djs-hit-stroke" style="fill: none; stroke-opacity: 0; stroke: white; stroke-width: 15px;"/><rect x="615" y="335" rx="4" width="70" height="10" class="djs-outline" style="fill: none;"/><title>Flow_0w0twv0</title></g></g></svg>