<?xml version="1.0" encoding="utf-8"?>
<!-- created with bpmn-js / http://bpmn.io -->
<!DOCTYPE svg PUBLIC "-//W3C//DTD SVG 1.1//EN" "http://www.w3.org/Graphics/SVG/1.1/DTD/svg11.dtd">
<svg xmlns="http://www.w3.org/2000/svg" xmlns:xlink="http://www.w3.org/1999/xlink" width="737" height="332" viewBox="187 155 737 332" version="1.1"><defs><marker id="sequenceflow-end-white-hsl_225_10_15_-b8gmzezzx3ks1kmxkmaojdy6x" viewBox="0 0 20 20" refX="11" refY="10" markerWidth="10" markerHeight="10" orient="auto"><path d="M 1 5 L 11 10 L 1 15 Z" style="stroke-linecap: round; stroke-linejoin: round; stroke: rgb(34, 36, 42); stroke-width: 1px; fill: rgb(34, 36, 42);"/></marker></defs><g class="djs-group"><g class="djs-element djs-shape" data-element-id="Event_0hgn2vg" style="display: block;" transform="matrix(1 0 0 1 192 182)"><g class="djs-visual"><circle cx="18" cy="18" r="18" style="stroke-linecap: round; stroke-linejoin: round; stroke: rgb(34, 36, 42); stroke-width: 2px; fill: white; fill-opacity: 0.95;"/></g><rect class="djs-hit djs-hit-all" x="0" y="0" width="36" height="36" style="fill: none; stroke-opacity: 0; stroke: white; stroke-width: 15px;"/><circle cx="18" cy="18" r="23" class="djs-outline" style="fill: none;"/><title>Event_0hgn2vg</title></g></g><g class="djs-group"><g class="djs-element djs-shape" data-element-id="BreakAtDestinationTask" style="display: block;" transform="matrix(1 0 0 1 720 282)"><g class="djs-visual"><rect x="0" y="0" width="100" height="80" rx="10" ry="10" style="stroke-linecap: round; stroke-linejoin: round; stroke: rgb(34, 36, 42); stroke-width: 2px; fill: white; fill-opacity: 0.95;"/><text lineHeight="1.2" class="djs-label" style="font-family: Arial, sans-serif; font-size: 12px; font-weight: normal; fill: rgb(34, 36, 42);"><tspan x="33.826171875" y="43.599999999999994">Break</tspan></text></g><rect class="djs-hit djs-hit-all" x="0" y="0" width="100" height="80" style="fill: none; stroke-opacity: 0; stroke: white; stroke-width: 15px;"/><rect x="-5" y="-5" rx="14" width="110" height="90" class="djs-outline" style="fill: none;"/><title>BreakAtDestinationTask</title></g></g><g class="djs-group"><g class="djs-element djs-shape" data-element-id="RestAtDestinationTask" style="display: block;" transform="matrix(1 0 0 1 720 402)"><g class="djs-visual"><rect x="0" y="0" width="100" height="80" rx="10" ry="10" style="stroke-linecap: round; stroke-linejoin: round; stroke: rgb(34, 36, 42); stroke-width: 2px; fill: white; fill-opacity: 0.95;"/><text lineHeight="1.2" class="djs-label" style="font-family: Arial, sans-serif; font-size: 12px; font-weight: normal; fill: rgb(34, 36, 42);"><tspan x="37.330078125" y="43.599999999999994">Rest</tspan></text></g><rect class="djs-hit djs-hit-all" x="0" y="0" width="100" height="80" style="fill: none; stroke-opacity: 0; stroke: white; stroke-width: 15px;"/><rect x="-5" y="-5" rx="14" width="110" height="90" class="djs-outline" style="fill: none;"/><title>RestAtDestinationTask</title></g></g><g class="djs-group"><g class="djs-element djs-shape" data-element-id="DecideAtDestinationTask" style="display: block;" transform="matrix(1 0 0 1 300 160)"><g class="djs-visual"><rect x="0" y="0" width="100" height="80" rx="10" ry="10" style="stroke-linecap: round; stroke-linejoin: round; stroke: rgb(34, 36, 42); stroke-width: 2px; fill: white; fill-opacity: 0.95;"/><text lineHeight="1.2" class="djs-label" style="font-family: Arial, sans-serif; font-size: 12px; font-weight: normal; fill: rgb(34, 36, 42);"><tspan x="19.421875" y="36.4">Set off-duty </tspan><tspan x="38.49609375" y="50.8">type</tspan></text><path d="m 12.3765 9.8338 c 0.4627 -1.0288 0.7177 -1.5952 2.2439 -1.5952 h 0.9873 v 2.2002 l 3.2183 -3.2198 l -3.2183 -3.219 v 2.2001 h -0.9873 c -2.844 0 -3.6014 1.6833 -4.1028 2.7972 c -0.4247 0.9438 -0.6395 1.4209 -1.7567 1.4835 h -3.5866 l 3.6643 0.0012 c 1.2193 0.0612 1.9879 0.4795 2.5146 1.0179 c 0.503 -0.5141 0.7853 -1.1373 1.0233 -1.6661 z m 6.4493 5.9467 l -3.2183 -3.219 v 2.2001 h -0.9873 c -1.526 0 -1.781 -0.5667 -2.2439 -1.5952 c -0.2378 -0.5286 -0.5203 -1.152 -1.0233 -1.6662 c -0.5267 -0.5383 -1.2953 -0.9568 -2.5146 -1.0179 l -3.6643 -0.0014 v 2.0383 h 3.5866 c 1.1175 0.0625 1.3321 0.5397 1.7567 1.4835 c 0.5011 1.1139 1.2586 2.7972 4.1028 2.7972 h 0.9873 v 2.2002 z" style="stroke: black; stroke-width: 0.5; fill: black;"/></g><rect class="djs-hit djs-hit-all" x="0" y="0" width="100" height="80" style="fill: none; stroke-opacity: 0; stroke: white; stroke-width: 15px;"/><rect x="-5" y="-5" rx="14" width="110" height="90" class="djs-outline" style="fill: none;"/><title>DecideAtDestinationTask</title></g></g><g class="djs-group"><g class="djs-element djs-shape" data-element-id="Gateway_0fes92z" style="display: block;" transform="matrix(1 0 0 1 455 175)"><g class="djs-visual"><polygon points="25,0 50,25 25,50 0,25" style="stroke-linecap: round; stroke-linejoin: round; stroke: rgb(34, 36, 42); stroke-width: 2px; fill: white; fill-opacity: 0.95;"/><path d="m 16,15 7.42857142857143,9.714285714285715 -7.42857142857143,9.714285714285715 3.428571428571429,0 5.714285714285715,-7.464228571428572 5.714285714285715,7.464228571428572 3.428571428571429,0 -7.42857142857143,-9.714285714285715 7.42857142857143,-9.714285714285715 -3.428571428571429,0 -5.714285714285715,7.464228571428572 -5.714285714285715,-7.464228571428572 -3.428571428571429,0 z" style="fill: rgb(34, 36, 42); stroke-linecap: round; stroke-linejoin: round; stroke: rgb(34, 36, 42); stroke-width: 1px;"/></g><rect class="djs-hit djs-hit-all" x="0" y="0" width="50" height="50" style="fill: none; stroke-opacity: 0; stroke: white; stroke-width: 15px;"/><rect x="2" y="2" rx="4" width="46" height="46" class="djs-outline" style="transform-box: fill-box; transform: rotate(45deg); transform-origin: center center; fill: none;"/><title>Gateway_0fes92z</title></g></g><g class="djs-group"><g class="djs-element djs-shape" data-element-id="TimerEvent" style="display: block;" transform="matrix(1 0 0 1 592 182)"><g class="djs-visual"><circle cx="18" cy="18" r="18" style="stroke-linecap: round; stroke-linejoin: round; stroke: rgb(34, 36, 42); stroke-width: 1.5px; fill: white; fill-opacity: 0.95;"/><circle cx="18" cy="18" r="15" style="stroke-linecap: round; stroke-linejoin: round; stroke: rgb(34, 36, 42); stroke-width: 1.5px; fill: none;"/><circle cx="18" cy="18" r="11" style="stroke-linecap: round; stroke-linejoin: round; stroke: rgb(34, 36, 42); stroke-width: 2px; fill: white;"/><path d="M 18,18 l 2.25,-7.5 m -2.25,7.5 l 5.25,1.5 " style="fill: none; stroke-linecap: round; stroke-linejoin: round; stroke: rgb(34, 36, 42); stroke-width: 2px;"/><path transform="rotate(0,18,18)" d="M 18,18 m 0,7.5 l -0,2.25 " style="fill: none; stroke-linecap: round; stroke-linejoin: round; stroke: rgb(34, 36, 42); stroke-width: 1px;"/><path transform="rotate(30,18,18)" d="M 18,18 m 0,7.5 l -0,2.25 " style="fill: none; stroke-linecap: round; stroke-linejoin: round; stroke: rgb(34, 36, 42); stroke-width: 1px;"/><path transform="rotate(60,18,18)" d="M 18,18 m 0,7.5 l -0,2.25 " style="fill: none; stroke-linecap: round; stroke-linejoin: round; stroke: rgb(34, 36, 42); stroke-width: 1px;"/><path transform="rotate(90,18,18)" d="M 18,18 m 0,7.5 l -0,2.25 " style="fill: none; stroke-linecap: round; stroke-linejoin: round; stroke: rgb(34, 36, 42); stroke-width: 1px;"/><path transform="rotate(120,18,18)" d="M 18,18 m 0,7.5 l -0,2.25 " style="fill: none; stroke-linecap: round; stroke-linejoin: round; stroke: rgb(34, 36, 42); stroke-width: 1px;"/><path transform="rotate(150,18,18)" d="M 18,18 m 0,7.5 l -0,2.25 " style="fill: none; stroke-linecap: round; stroke-linejoin: round; stroke: rgb(34, 36, 42); stroke-width: 1px;"/><path transform="rotate(180,18,18)" d="M 18,18 m 0,7.5 l -0,2.25 " style="fill: none; stroke-linecap: round; stroke-linejoin: round; stroke: rgb(34, 36, 42); stroke-width: 1px;"/><path transform="rotate(210,18,18)" d="M 18,18 m 0,7.5 l -0,2.25 " style="fill: none; stroke-linecap: round; stroke-linejoin: round; stroke: rgb(34, 36, 42); stroke-width: 1px;"/><path transform="rotate(240,18,18)" d="M 18,18 m 0,7.5 l -0,2.25 " style="fill: none; stroke-linecap: round; stroke-linejoin: round; stroke: rgb(34, 36, 42); stroke-width: 1px;"/><path transform="rotate(270,18,18)" d="M 18,18 m 0,7.5 l -0,2.25 " style="fill: none; stroke-linecap: round; stroke-linejoin: round; stroke: rgb(34, 36, 42); stroke-width: 1px;"/><path transform="rotate(300,18,18)" d="M 18,18 m 0,7.5 l -0,2.25 " style="fill: none; stroke-linecap: round; stroke-linejoin: round; stroke: rgb(34, 36, 42); stroke-width: 1px;"/><path transform="rotate(330,18,18)" d="M 18,18 m 0,7.5 l -0,2.25 " style="fill: none; stroke-linecap: round; stroke-linejoin: round; stroke: rgb(34, 36, 42); stroke-width: 1px;"/></g><rect class="djs-hit djs-hit-all" x="0" y="0" width="36" height="36" style="fill: none; stroke-opacity: 0; stroke: white; stroke-width: 15px;"/><circle cx="18" cy="18" r="23" class="djs-outline" style="fill: none;"/><title>TimerEvent</title></g></g><g class="djs-group"><g class="djs-element djs-shape" data-element-id="TimerEvent_label" style="display: block;" transform="matrix(1 0 0 1 581 225)"><g class="djs-visual"><text lineHeight="1.2" class="djs-label" style="font-family: Arial, sans-serif; font-size: 11px; font-weight: normal; fill: rgb(34, 36, 42);"><tspan x="0" y="9.899999999999999">Earliest visit</tspan></text></g><rect class="djs-hit djs-hit-all" x="0" y="0" width="59" height="14" style="fill: none; stroke-opacity: 0; stroke: white; stroke-width: 15px;"/><rect x="-5" y="-5" rx="4" width="69" height="24" class="djs-outline" style="fill: none;"/><title>TimerEvent_label</title></g></g><g class="djs-group"><g class="djs-element djs-shape" data-element-id="Event_00xrwv2" style="display: block;" transform="matrix(1 0 0 1 722 182)"><g class="djs-visual"><circle cx="18" cy="18" r="18" style="stroke-linecap: round; stroke-linejoin: round; stroke: rgb(34, 36, 42); stroke-width: 4px; fill: white; fill-opacity: 0.95;"/></g><rect class="djs-hit djs-hit-all" x="0" y="0" width="36" height="36" style="fill: none; stroke-opacity: 0; stroke: white; stroke-width: 15px;"/><circle cx="18" cy="18" r="24" class="djs-outline" style="fill: none;"/><title>Event_00xrwv2</title></g></g><g class="djs-group"><g class="djs-element djs-shape" data-element-id="Event_1c129bf" style="display: block;" transform="matrix(1 0 0 1 882 304)"><g class="djs-visual"><circle cx="18" cy="18" r="18" style="stroke-linecap: round; stroke-linejoin: round; stroke: rgb(34, 36, 42); stroke-width: 4px; fill: white; fill-opacity: 0.95;"/></g><rect class="djs-hit djs-hit-all" x="0" y="0" width="36" height="36" style="fill: none; stroke-opacity: 0; stroke: white; stroke-width: 15px;"/><circle cx="18" cy="18" r="24" class="djs-outline" style="fill: none;"/><title>Event_1c129bf</title></g></g><g class="djs-group"><g class="djs-element djs-shape" data-element-id="Event_0zmh59d" style="display: block;" transform="matrix(1 0 0 1 882 424)"><g class="djs-visual"><circle cx="18" cy="18" r="18" style="stroke-linecap: round; stroke-linejoin: round; stroke: rgb(34, 36, 42); stroke-width: 4px; fill: white; fill-opacity: 0.95;"/></g><rect class="djs-hit djs-hit-all" x="0" y="0" width="36" height="36" style="fill: none; stroke-opacity: 0; stroke: white; stroke-width: 15px;"/><circle cx="18" cy="18" r="24" class="djs-outline" style="fill: none;"/><title>Event_0zmh59d</title></g></g><g class="djs-group"><g class="djs-element djs-shape" data-element-id="Activity_0ukjrfm" style="display: block;" transform="matrix(1 0 0 1 560 282)"><g class="djs-visual"><rect x="0" y="0" width="100" height="80" rx="10" ry="10" style="stroke-linecap: round; stroke-linejoin: round; stroke: rgb(34, 36, 42); stroke-width: 2px; fill: white; fill-opacity: 0.95;"/><text lineHeight="1.2" class="djs-label" style="font-family: Arial, sans-serif; font-size: 12px; font-weight: normal; fill: rgb(34, 36, 42);"><tspan x="17.640625" y="43.599999999999994">Set duration</tspan></text><path d="m 12.3765 9.8338 c 0.4627 -1.0288 0.7177 -1.5952 2.2439 -1.5952 h 0.9873 v 2.2002 l 3.2183 -3.2198 l -3.2183 -3.219 v 2.2001 h -0.9873 c -2.844 0 -3.6014 1.6833 -4.1028 2.7972 c -0.4247 0.9438 -0.6395 1.4209 -1.7567 1.4835 h -3.5866 l 3.6643 0.0012 c 1.2193 0.0612 1.9879 0.4795 2.5146 1.0179 c 0.503 -0.5141 0.7853 -1.1373 1.0233 -1.6661 z m 6.4493 5.9467 l -3.2183 -3.219 v 2.2001 h -0.9873 c -1.526 0 -1.781 -0.5667 -2.2439 -1.5952 c -0.2378 -0.5286 -0.5203 -1.152 -1.0233 -1.6662 c -0.5267 -0.5383 -1.2953 -0.9568 -2.5146 -1.0179 l -3.6643 -0.0014 v 2.0383 h 3.5866 c 1.1175 0.0625 1.3321 0.5397 1.7567 1.4835 c 0.5011 1.1139 1.2586 2.7972 4.1028 2.7972 h 0.9873 v 2.2002 z" style="stroke: black; stroke-width: 0.5; fill: black;"/></g><rect class="djs-hit djs-hit-all" x="0" y="0" width="100" height="80" style="fill: none; stroke-opacity: 0; stroke: white; stroke-width: 15px;"/><rect x="-5" y="-5" rx="14" width="110" height="90" class="djs-outline" style="fill: none;"/><title>Activity_0ukjrfm</title></g></g><g class="djs-group"><g class="djs-element djs-shape" data-element-id="Activity_0evasg5" style="display: block;" transform="matrix(1 0 0 1 560 402)"><g class="djs-visual"><rect x="0" y="0" width="100" height="80" rx="10" ry="10" style="stroke-linecap: round; stroke-linejoin: round; stroke: rgb(34, 36, 42); stroke-width: 2px; fill: white; fill-opacity: 0.95;"/><text lineHeight="1.2" class="djs-label" style="font-family: Arial, sans-serif; font-size: 12px; font-weight: normal; fill: rgb(34, 36, 42);"><tspan x="17.640625" y="43.599999999999994">Set duration</tspan></text><path d="m 12.3765 9.8338 c 0.4627 -1.0288 0.7177 -1.5952 2.2439 -1.5952 h 0.9873 v 2.2002 l 3.2183 -3.2198 l -3.2183 -3.219 v 2.2001 h -0.9873 c -2.844 0 -3.6014 1.6833 -4.1028 2.7972 c -0.4247 0.9438 -0.6395 1.4209 -1.7567 1.4835 h -3.5866 l 3.6643 0.0012 c 1.2193 0.0612 1.9879 0.4795 2.5146 1.0179 c 0.503 -0.5141 0.7853 -1.1373 1.0233 -1.6661 z m 6.4493 5.9467 l -3.2183 -3.219 v 2.2001 h -0.9873 c -1.526 0 -1.781 -0.5667 -2.2439 -1.5952 c -0.2378 -0.5286 -0.5203 -1.152 -1.0233 -1.6662 c -0.5267 -0.5383 -1.2953 -0.9568 -2.5146 -1.0179 l -3.6643 -0.0014 v 2.0383 h 3.5866 c 1.1175 0.0625 1.3321 0.5397 1.7567 1.4835 c 0.5011 1.1139 1.2586 2.7972 4.1028 2.7972 h 0.9873 v 2.2002 z" style="stroke: black; stroke-width: 0.5; fill: black;"/></g><rect class="djs-hit djs-hit-all" x="0" y="0" width="100" height="80" style="fill: none; stroke-opacity: 0; stroke: white; stroke-width: 15px;"/><rect x="-5" y="-5" rx="14" width="110" height="90" class="djs-outline" style="fill: none;"/><title>Activity_0evasg5</title></g></g><g class="djs-group"><g class="djs-element djs-connection" data-element-id="Flow_08rnlb8" style="display: block;"><g class="djs-visual"><path data-corner-radius="5" style="fill: none; stroke-linecap: round; stroke-linejoin: round; stroke: rgb(34, 36, 42); stroke-width: 2px; marker-end: url('#sequenceflow-end-white-hsl_225_10_15_-b8gmzezzx3ks1kmxkmaojdy6x');" d="M480,225L480,317C480,319.5,482.5,322,485,322L560,322"/></g><path d="M480,225L480,322L560,322" class="djs-hit djs-hit-stroke" style="fill: none; stroke-opacity: 0; stroke: white; stroke-width: 15px;"/><rect x="475" y="220" rx="4" width="90" height="107" class="djs-outline" style="fill: none;"/><title>Flow_08rnlb8</title></g></g><g class="djs-group"><g class="djs-element djs-shape" data-element-id="Flow_08rnlb8_label" style="display: block;" transform="matrix(1 0 0 1 489 303)"><g class="djs-visual"><text lineHeight="1.2" class="djs-label" style="font-family: Arial, sans-serif; font-size: 11px; font-weight: normal; fill: rgb(34, 36, 42);"><tspan x="0" y="9.899999999999999">break</tspan></text></g><rect class="djs-hit djs-hit-all" x="0" y="0" width="29" height="14" style="fill: none; stroke-opacity: 0; stroke: white; stroke-width: 15px;"/><rect x="-5" y="-5" rx="4" width="39" height="24" class="djs-outline" style="fill: none;"/><title>Flow_08rnlb8_label</title></g></g><g class="djs-group"><g class="djs-element djs-connection" data-element-id="Flow_08pr2zc" style="display: block;"><g class="djs-visual"><path data-corner-radius="5" style="fill: none; stroke-linecap: round; stroke-linejoin: round; stroke: rgb(34, 36, 42); stroke-width: 2px; marker-end: url('#sequenceflow-end-white-hsl_225_10_15_-b8gmzezzx3ks1kmxkmaojdy6x');" d="M480,225L480,437C480,439.5,482.5,442,485,442L560,442"/></g><path d="M480,225L480,442L560,442" class="djs-hit djs-hit-stroke" style="fill: none; stroke-opacity: 0; stroke: white; stroke-width: 15px;"/><rect x="475" y="220" rx="4" width="90" height="227" class="djs-outline" style="fill: none;"/><title>Flow_08pr2zc</title></g></g><g class="djs-group"><g class="djs-element djs-shape" data-element-id="Flow_08pr2zc_label" style="display: block;" transform="matrix(1 0 0 1 493 423)"><g class="djs-visual"><text lineHeight="1.2" class="djs-label" style="font-family: Arial, sans-serif; font-size: 11px; font-weight: normal; fill: rgb(34, 36, 42);"><tspan x="0" y="9.899999999999999">rest</tspan></text></g><rect class="djs-hit djs-hit-all" x="0" y="0" width="19" height="14" style="fill: none; stroke-opacity: 0; stroke: white; stroke-width: 15px;"/><rect x="-5" y="-5" rx="4" width="29" height="24" class="djs-outline" style="fill: none;"/><title>Flow_08pr2zc_label</title></g></g><g class="djs-group"><g class="djs-element djs-connection" data-element-id="Flow_1obxdip" style="display: block;"><g class="djs-visual"><path data-corner-radius="5" style="fill: none; stroke-linecap: round; stroke-linejoin: round; stroke: rgb(34, 36, 42); stroke-width: 2px; marker-end: url('#sequenceflow-end-white-hsl_225_10_15_-b8gmzezzx3ks1kmxkmaojdy6x');" d="M400,200L455,200"/></g><path d="M400,200L455,200" class="djs-hit djs-hit-stroke" style="fill: none; stroke-opacity: 0; stroke: white; stroke-width: 15px;"/><rect x="395" y="195" rx="4" width="65" height="10" class="djs-outline" style="fill: none;"/><title>Flow_1obxdip</title></g></g><g class="djs-group"><g class="djs-element djs-connection" data-element-id="Flow_1at46ok" style="display: block;"><g class="djs-visual"><path data-corner-radius="5" style="fill: none; stroke-linecap: round; stroke-linejoin: round; stroke: rgb(34, 36, 42); stroke-width: 2px; marker-end: url('#sequenceflow-end-white-hsl_225_10_15_-b8gmzezzx3ks1kmxkmaojdy6x');" d="M505,200L592,200"/></g><path d="M505,200L592,200" class="djs-hit djs-hit-stroke" style="fill: none; stroke-opacity: 0; stroke: white; stroke-width: 15px;"/><rect x="500" y="195" rx="4" width="97" height="10" class="djs-outline" style="fill: none;"/><title>Flow_1at46ok</title></g></g><g class="djs-group"><g class="djs-element djs-shape" data-element-id="Flow_1at46ok_label" style="display: block;" transform="matrix(1 0 0 1 508 182)"><g class="djs-visual"><text lineHeight="1.2" class="djs-label" style="font-family: Arial, sans-serif; font-size: 11px; font-weight: normal; fill: rgb(34, 36, 42);"><tspan x="0" y="9.899999999999999">wait</tspan></text></g><rect class="djs-hit djs-hit-all" x="0" y="0" width="19" height="14" style="fill: none; stroke-opacity: 0; stroke: white; stroke-width: 15px;"/><rect x="-5" y="-5" rx="4" width="29" height="24" class="djs-outline" style="fill: none;"/><title>Flow_1at46ok_label</title></g></g><g class="djs-group"><g class="djs-element djs-connection" data-element-id="Flow_1smx19i" style="display: block;"><g class="djs-visual"><path data-corner-radius="5" style="fill: none; stroke-linecap: round; stroke-linejoin: round; stroke: rgb(34, 36, 42); stroke-width: 2px; marker-end: url('#sequenceflow-end-white-hsl_225_10_15_-b8gmzezzx3ks1kmxkmaojdy6x');" d="M228,200L300,200"/></g><path d="M228,200L300,200" class="djs-hit djs-hit-stroke" style="fill: none; stroke-opacity: 0; stroke: white; stroke-width: 15px;"/><rect x="223" y="195" rx="4" width="82" height="10" class="djs-outline" style="fill: none;"/><title>Flow_1smx19i</title></g></g><g class="djs-group"><g class="djs-element djs-connection" data-element-id="Flow_1q49j8j" style="display: block;"><g class="djs-visual"><path data-corner-radius="5" style="fill: none; stroke-linecap: round; stroke-linejoin: round; stroke: rgb(34, 36, 42); stroke-width: 2px; marker-end: url('#sequenceflow-end-white-hsl_225_10_15_-b8gmzezzx3ks1kmxkmaojdy6x');" d="M628,200L722,200"/></g><path d="M628,200L722,200" class="djs-hit djs-hit-stroke" style="fill: none; stroke-opacity: 0; stroke: white; stroke-width: 15px;"/><rect x="623" y="195" rx="4" width="104" height="10" class="djs-outline" style="fill: none;"/><title>Flow_1q49j8j</title></g></g><g class="djs-group"><g class="djs-element djs-connection" data-element-id="Flow_090mdkl" style="display: block;"><g class="djs-visual"><path data-corner-radius="5" style="fill: none; stroke-linecap: round; stroke-linejoin: round; stroke: rgb(34, 36, 42); stroke-width: 2px; marker-end: url('#sequenceflow-end-white-hsl_225_10_15_-b8gmzezzx3ks1kmxkmaojdy6x');" d="M820,322L882,322"/></g><path d="M820,322L882,322" class="djs-hit djs-hit-stroke" style="fill: none; stroke-opacity: 0; stroke: white; stroke-width: 15px;"/><rect x="815" y="317" rx="4" width="72" height="10" class="djs-outline" style="fill: none;"/><title>Flow_090mdkl</title></g></g><g class="djs-group"><g class="djs-element djs-connection" data-element-id="Flow_0lvdbtg" style="display: block;"><g class="djs-visual"><path data-corner-radius="5" style="fill: none; stroke-linecap: round; stroke-linejoin: round; stroke: rgb(34, 36, 42); stroke-width: 2px; marker-end: url('#sequenceflow-end-white-hsl_225_10_15_-b8gmzezzx3ks1kmxkmaojdy6x');" d="M820,442L882,442"/></g><path d="M820,442L882,442" class="djs-hit djs-hit-stroke" style="fill: none; stroke-opacity: 0; stroke: white; stroke-width: 15px;"/><rect x="815" y="437" rx="4" width="72" height="10" class="djs-outline" style="fill: none;"/><title>Flow_0lvdbtg</title></g></g><g class="djs-group"><g class="djs-element djs-connection" data-element-id="Flow_14pqom3" style="display: block;"><g class="djs-visual"><path data-corner-radius="5" style="fill: none; stroke-linecap: round; stroke-linejoin: round; stroke: rgb(34, 36, 42); stroke-width: 2px; marker-end: url('#sequenceflow-end-white-hsl_225_10_15_-b8gmzezzx3ks1kmxkmaojdy6x');" d="M660,322L720,322"/></g><path d="M660,322L720,322" class="djs-hit djs-hit-stroke" style="fill: none; stroke-opacity: 0; stroke: white; stroke-width: 15px;"/><rect x="655" y="317" rx="4" width="70" height="10" class="djs-outline" style="fill: none;"/><title>Flow_14pqom3</title></g></g><g class="djs-group"><g class="djs-element djs-connection" data-element-id="Flow_0gxbcwv" style="display: block;"><g class="djs-visual"><path data-corner-radius="5" style="fill: none; stroke-linecap: round; stroke-linejoin: round; stroke: rgb(34, 36, 42); stroke-width: 2px; marker-end: url('#sequenceflow-end-white-hsl_225_10_15_-b8gmzezzx3ks1kmxkmaojdy6x');" d="M660,442L720,442"/></g><path d="M660,442L720,442" class="djs-hit djs-hit-stroke" style="fill: none; stroke-opacity: 0; stroke: white; stroke-width: 15px;"/><rect x="655" y="437" rx="4" width="70" height="10" class="djs-outline" style="fill: none;"/><title>Flow_0gxbcwv</title></g></g></svg>